<svg width="1154" height="308" viewBox="0 0 1154 308" fill="none" xmlns="http://www.w3.org/2000/svg">
<rect width="1154" height="308" fill="#E5E5E5"/>
<rect width="1154" height="308" fill="#00192B"/>
<path d="M1147.95 290.9L1153.8 217.123L1080.8 204.944L1074.96 278.72L1147.95 290.9Z" fill="#02385F" fill-opacity="0.12"/>
<path d="M575.226 3.96941L625.437 20.5201L540.018 43.4079L575.226 3.96941Z" fill="#02385F" fill-opacity="0.12"/>
<path d="M213.573 146.887L461.77 145.885L260.385 290.961L12.1877 291.963L213.573 146.887Z" fill="#02385F" fill-opacity="0.12"/>
<path d="M82.668 34.34V44.888H92.316V34.52H96.96V59H92.316V48.632H82.668V59H78.024V34.52L82.668 34.34ZM109.536 31.892H114.396L110.94 37.796H107.412L109.536 31.892ZM111.264 59.432C108.24 59.432 105.852 58.604 104.1 56.948C102.372 55.292 101.508 53.072 101.508 50.288C101.508 47.504 102.288 45.272 103.848 43.592C105.432 41.912 107.58 41.072 110.292 41.072C113.028 41.072 115.032 41.984 116.304 43.808C117.6 45.608 118.248 47.744 118.248 50.216V51.656H106.476C106.692 52.808 107.22 53.732 108.06 54.428C108.9 55.1 110.004 55.436 111.372 55.436C112.164 55.436 112.872 55.34 113.496 55.148C114.144 54.932 114.888 54.632 115.728 54.248L117.096 57.632C116.28 58.256 115.284 58.712 114.108 59C112.956 59.288 112.008 59.432 111.264 59.432ZM113.82 48.524C113.58 47.348 113.148 46.484 112.524 45.932C111.9 45.356 111.12 45.068 110.184 45.068C109.224 45.068 108.42 45.368 107.772 45.968C107.124 46.544 106.704 47.396 106.512 48.524H113.82ZM130.161 45.068C128.841 45.068 127.809 45.572 127.065 46.58C126.321 47.564 125.949 48.8 125.949 50.288C125.949 51.8 126.321 53.036 127.065 53.996C127.809 54.956 128.841 55.436 130.161 55.436C130.977 55.436 131.709 55.34 132.357 55.148C133.029 54.932 133.785 54.632 134.625 54.248L135.957 57.632C135.141 58.256 134.145 58.712 132.969 59C131.817 59.288 130.869 59.432 130.125 59.432C127.293 59.432 125.085 58.604 123.501 56.948C121.917 55.292 121.125 53.072 121.125 50.288C121.125 47.504 121.917 45.272 123.501 43.592C125.085 41.912 127.293 41.072 130.125 41.072C130.869 41.072 131.805 41.228 132.933 41.54C134.085 41.852 135.093 42.308 135.957 42.908L134.625 46.256C133.785 45.872 133.029 45.584 132.357 45.392C131.709 45.176 130.977 45.068 130.161 45.068ZM150.153 58.64C149.769 58.952 149.217 59.204 148.497 59.396C147.801 59.612 147.177 59.72 146.625 59.72C144.465 59.72 142.761 59.18 141.513 58.1C140.289 56.996 139.677 55.436 139.677 53.42V45.176H137.337V41.576H139.677V37.436L144.321 36.608V41.576H147.489L148.929 45.176H144.321V52.592C144.321 53.504 144.537 54.26 144.969 54.86C145.401 55.436 146.037 55.724 146.877 55.724C147.189 55.724 147.501 55.688 147.813 55.616C148.125 55.544 148.449 55.424 148.785 55.256L150.153 58.64ZM160.812 59.432C158.052 59.432 155.892 58.604 154.332 56.948C152.796 55.268 152.028 53.024 152.028 50.216C152.028 47.432 152.832 45.212 154.44 43.556C156.072 41.9 158.292 41.072 161.1 41.072C164.004 41.072 166.248 41.936 167.832 43.664C169.44 45.368 170.244 47.612 170.244 50.396C170.244 53.18 169.38 55.388 167.652 57.02C165.924 58.628 163.644 59.432 160.812 59.432ZM165.42 50.396C165.42 48.74 165.048 47.444 164.304 46.508C163.584 45.548 162.552 45.068 161.208 45.068C159.84 45.068 158.772 45.488 158.004 46.328C157.236 47.168 156.852 48.452 156.852 50.18C156.852 51.908 157.176 53.216 157.824 54.104C158.496 54.992 159.516 55.436 160.884 55.436C162.228 55.436 163.32 55.04 164.16 54.248C165 53.432 165.42 52.148 165.42 50.396ZM183.558 41.54L184.494 45.284C183.702 45.284 182.778 45.512 181.722 45.968C180.69 46.424 179.67 47.096 178.662 47.984V59H173.982V41.54H176.43L177.978 44.096C178.698 43.472 179.574 42.896 180.606 42.368C181.638 41.816 182.622 41.54 183.558 41.54ZM204.788 40.928L201.584 49.46H208.064L204.788 40.928ZM206.876 34.52L216.38 58.352L211.7 59L209.504 53.24H200.216L198.056 59H193.376L202.916 34.52H206.876ZM223.737 33.584V59H219.093V33.98L223.737 33.584ZM233.084 59L226.388 42.188L231.212 41.54L235.244 52.124L239.06 41.54H243.992L237.116 59H233.084ZM249.896 53.78C249.896 54.284 250.1 54.74 250.508 55.148C250.916 55.532 251.456 55.724 252.128 55.724C252.776 55.724 253.424 55.58 254.072 55.292C254.744 55.004 255.38 54.572 255.98 53.996V51.332H252.452C251.636 51.332 251 51.584 250.544 52.088C250.112 52.592 249.896 53.156 249.896 53.78ZM252.2 59.432C250.064 59.432 248.48 58.916 247.448 57.884C246.416 56.828 245.9 55.46 245.9 53.78C245.9 51.98 246.512 50.6 247.736 49.64C248.96 48.68 250.556 48.2 252.524 48.2H255.944C255.92 47.312 255.656 46.628 255.152 46.148C254.672 45.644 254 45.392 253.136 45.392C252.32 45.392 251.432 45.512 250.472 45.752C249.512 45.968 248.708 46.232 248.06 46.544L246.8 42.656C247.472 42.2 248.492 41.828 249.86 41.54C251.252 41.228 252.32 41.072 253.064 41.072C255.152 41.072 256.94 41.684 258.428 42.908C259.916 44.108 260.66 45.644 260.66 47.516V59H258.248L257.096 57.524C256.448 58.028 255.68 58.472 254.792 58.856C253.928 59.24 253.064 59.432 252.2 59.432ZM274.542 41.54L275.478 45.284C274.686 45.284 273.762 45.512 272.706 45.968C271.674 46.424 270.654 47.096 269.646 47.984V59H264.966V41.54H267.414L268.962 44.096C269.682 43.472 270.558 42.896 271.59 42.368C272.622 41.816 273.606 41.54 274.542 41.54ZM281.361 53.78C281.361 54.284 281.565 54.74 281.973 55.148C282.381 55.532 282.921 55.724 283.593 55.724C284.241 55.724 284.889 55.58 285.537 55.292C286.209 55.004 286.845 54.572 287.445 53.996V51.332H283.917C283.101 51.332 282.465 51.584 282.009 52.088C281.577 52.592 281.361 53.156 281.361 53.78ZM283.665 59.432C281.529 59.432 279.945 58.916 278.913 57.884C277.881 56.828 277.365 55.46 277.365 53.78C277.365 51.98 277.977 50.6 279.201 49.64C280.425 48.68 282.021 48.2 283.989 48.2H287.409C287.385 47.312 287.121 46.628 286.617 46.148C286.137 45.644 285.465 45.392 284.601 45.392C283.785 45.392 282.897 45.512 281.937 45.752C280.977 45.968 280.173 46.232 279.525 46.544L278.265 42.656C278.937 42.2 279.957 41.828 281.325 41.54C282.717 41.228 283.785 41.072 284.529 41.072C286.617 41.072 288.405 41.684 289.893 42.908C291.381 44.108 292.125 45.644 292.125 47.516V59H289.713L288.561 57.524C287.913 58.028 287.145 58.472 286.257 58.856C285.393 59.24 284.529 59.432 283.665 59.432ZM304.891 44.852C303.259 44.852 302.119 45.428 301.471 46.58C300.847 47.732 300.535 48.92 300.535 50.144C300.535 51.512 300.823 52.736 301.399 53.816C301.975 54.896 303.139 55.436 304.891 55.436C305.443 55.436 306.019 55.316 306.619 55.076C307.243 54.812 307.819 54.512 308.347 54.176V46.112C307.819 45.752 307.243 45.452 306.619 45.212C306.019 44.972 305.443 44.852 304.891 44.852ZM313.063 33.584V59H310.615L309.319 57.308C308.527 57.98 307.591 58.508 306.511 58.892C305.455 59.252 304.495 59.432 303.631 59.432C301.087 59.432 299.131 58.544 297.763 56.768C296.395 54.992 295.711 52.784 295.711 50.144C295.711 47.504 296.431 45.296 297.871 43.52C299.335 41.744 301.327 40.856 303.847 40.856C304.495 40.856 305.227 40.976 306.043 41.216C306.859 41.432 307.627 41.744 308.347 42.152V33.98L313.063 33.584ZM325.8 59.432C323.04 59.432 320.88 58.604 319.32 56.948C317.784 55.268 317.016 53.024 317.016 50.216C317.016 47.432 317.82 45.212 319.428 43.556C321.06 41.9 323.28 41.072 326.088 41.072C328.992 41.072 331.236 41.936 332.82 43.664C334.428 45.368 335.232 47.612 335.232 50.396C335.232 53.18 334.368 55.388 332.64 57.02C330.912 58.628 328.632 59.432 325.8 59.432ZM330.408 50.396C330.408 48.74 330.036 47.444 329.292 46.508C328.572 45.548 327.54 45.068 326.196 45.068C324.828 45.068 323.76 45.488 322.992 46.328C322.224 47.168 321.84 48.452 321.84 50.18C321.84 51.908 322.164 53.216 322.812 54.104C323.484 54.992 324.504 55.436 325.872 55.436C327.216 55.436 328.308 55.04 329.148 54.248C329.988 53.432 330.408 52.148 330.408 50.396Z" fill="white"/>
<g filter="url(#filter0_d_9_2)">
<path d="M144.29 92.816H140.834V98H138.512V85.76H145.442L145.802 87.596H140.834V90.998H143.948L144.29 92.816ZM151.904 89.27L152.372 91.142C151.976 91.142 151.514 91.256 150.986 91.484C150.47 91.712 149.96 92.048 149.456 92.492V98H147.116V89.27H148.34L149.114 90.548C149.474 90.236 149.912 89.948 150.428 89.684C150.944 89.408 151.436 89.27 151.904 89.27ZM157.599 98.216C156.219 98.216 155.139 97.802 154.359 96.974C153.591 96.134 153.207 95.012 153.207 93.608C153.207 92.216 153.609 91.106 154.413 90.278C155.229 89.45 156.339 89.036 157.743 89.036C159.195 89.036 160.317 89.468 161.109 90.332C161.913 91.184 162.315 92.306 162.315 93.698C162.315 95.09 161.883 96.194 161.019 97.01C160.155 97.814 159.015 98.216 157.599 98.216ZM159.903 93.698C159.903 92.87 159.717 92.222 159.345 91.754C158.985 91.274 158.469 91.034 157.797 91.034C157.113 91.034 156.579 91.244 156.195 91.664C155.811 92.084 155.619 92.726 155.619 93.59C155.619 94.454 155.781 95.108 156.105 95.552C156.441 95.996 156.951 96.218 157.635 96.218C158.307 96.218 158.853 96.02 159.273 95.624C159.693 95.216 159.903 94.574 159.903 93.698ZM166.11 90.206C166.506 89.81 166.998 89.498 167.586 89.27C168.186 89.042 168.72 88.928 169.188 88.928C170.376 88.928 171.216 89.276 171.708 89.972C172.212 90.668 172.464 91.52 172.464 92.528V98H170.124V92.636C170.124 92.084 169.992 91.664 169.728 91.376C169.464 91.076 169.08 90.926 168.576 90.926C168.24 90.926 167.886 91.016 167.514 91.196C167.154 91.364 166.824 91.562 166.524 91.79V98H164.184V89.27H165.408L166.11 90.206ZM180.026 97.82C179.834 97.976 179.558 98.102 179.198 98.198C178.85 98.306 178.538 98.36 178.262 98.36C177.182 98.36 176.33 98.09 175.706 97.55C175.094 96.998 174.788 96.218 174.788 95.21V91.088H173.618V89.288H174.788V87.218L177.11 86.804V89.288H178.694L179.414 91.088H177.11V94.796C177.11 95.252 177.218 95.63 177.434 95.93C177.65 96.218 177.968 96.362 178.388 96.362C178.544 96.362 178.7 96.344 178.856 96.308C179.012 96.272 179.174 96.212 179.342 96.128L180.026 97.82ZM185.391 93.986H180.693L180.495 92.15H185.211L185.391 93.986ZM191.308 98.216C189.796 98.216 188.602 97.802 187.726 96.974C186.862 96.146 186.43 95.036 186.43 93.644C186.43 92.252 186.82 91.136 187.6 90.296C188.392 89.456 189.466 89.036 190.822 89.036C192.19 89.036 193.192 89.492 193.828 90.404C194.476 91.304 194.8 92.372 194.8 93.608V94.328H188.914C189.022 94.904 189.286 95.366 189.706 95.714C190.126 96.05 190.678 96.218 191.362 96.218C191.758 96.218 192.112 96.17 192.424 96.074C192.748 95.966 193.12 95.816 193.54 95.624L194.224 97.316C193.816 97.628 193.318 97.856 192.73 98C192.154 98.144 191.68 98.216 191.308 98.216ZM192.586 92.762C192.466 92.174 192.25 91.742 191.938 91.466C191.626 91.178 191.236 91.034 190.768 91.034C190.288 91.034 189.886 91.184 189.562 91.484C189.238 91.772 189.028 92.198 188.932 92.762H192.586ZM198.524 90.206C198.92 89.81 199.412 89.498 200 89.27C200.6 89.042 201.134 88.928 201.602 88.928C202.79 88.928 203.63 89.276 204.122 89.972C204.626 90.668 204.878 91.52 204.878 92.528V98H202.538V92.636C202.538 92.084 202.406 91.664 202.142 91.376C201.878 91.076 201.494 90.926 200.99 90.926C200.654 90.926 200.3 91.016 199.928 91.196C199.568 91.364 199.238 91.562 198.938 91.79V98H196.598V89.27H197.822L198.524 90.206ZM211.27 90.926C210.454 90.926 209.884 91.214 209.56 91.79C209.248 92.366 209.092 92.96 209.092 93.572C209.092 94.256 209.236 94.868 209.524 95.408C209.812 95.948 210.394 96.218 211.27 96.218C211.546 96.218 211.834 96.158 212.134 96.038C212.446 95.906 212.734 95.756 212.998 95.588V91.556C212.734 91.376 212.446 91.226 212.134 91.106C211.834 90.986 211.546 90.926 211.27 90.926ZM215.356 85.292V98H214.132L213.484 97.154C213.088 97.49 212.62 97.754 212.08 97.946C211.552 98.126 211.072 98.216 210.64 98.216C209.368 98.216 208.39 97.772 207.706 96.884C207.022 95.996 206.68 94.892 206.68 93.572C206.68 92.252 207.04 91.148 207.76 90.26C208.492 89.372 209.488 88.928 210.748 88.928C211.072 88.928 211.438 88.988 211.846 89.108C212.254 89.216 212.638 89.372 212.998 89.576V85.49L215.356 85.292ZM226.806 98H222.342V85.76H226.878C228.762 85.76 230.16 86.33 231.072 87.47C231.984 88.61 232.44 90.056 232.44 91.808C232.44 93.704 231.948 95.21 230.964 96.326C229.98 97.442 228.594 98 226.806 98ZM226.896 87.74H224.664V96.038H226.77C227.754 96.038 228.54 95.714 229.128 95.066C229.728 94.418 230.028 93.332 230.028 91.808C230.028 90.536 229.776 89.54 229.272 88.82C228.768 88.1 227.976 87.74 226.896 87.74ZM239.12 98.216C237.608 98.216 236.414 97.802 235.538 96.974C234.674 96.146 234.242 95.036 234.242 93.644C234.242 92.252 234.632 91.136 235.412 90.296C236.204 89.456 237.278 89.036 238.634 89.036C240.002 89.036 241.004 89.492 241.64 90.404C242.288 91.304 242.612 92.372 242.612 93.608V94.328H236.726C236.834 94.904 237.098 95.366 237.518 95.714C237.938 96.05 238.49 96.218 239.174 96.218C239.57 96.218 239.924 96.17 240.236 96.074C240.56 95.966 240.932 95.816 241.352 95.624L242.036 97.316C241.628 97.628 241.13 97.856 240.542 98C239.966 98.144 239.492 98.216 239.12 98.216ZM240.398 92.762C240.278 92.174 240.062 91.742 239.75 91.466C239.438 91.178 239.048 91.034 238.58 91.034C238.1 91.034 237.698 91.184 237.374 91.484C237.05 91.772 236.84 92.198 236.744 92.762H240.398ZM246.751 98L243.403 89.594L245.815 89.27L247.831 94.562L249.739 89.27H252.205L248.767 98H246.751ZM257.929 98.216C256.417 98.216 255.223 97.802 254.347 96.974C253.483 96.146 253.051 95.036 253.051 93.644C253.051 92.252 253.441 91.136 254.221 90.296C255.013 89.456 256.087 89.036 257.443 89.036C258.811 89.036 259.813 89.492 260.449 90.404C261.097 91.304 261.421 92.372 261.421 93.608V94.328H255.535C255.643 94.904 255.907 95.366 256.327 95.714C256.747 96.05 257.299 96.218 257.983 96.218C258.379 96.218 258.733 96.17 259.045 96.074C259.369 95.966 259.741 95.816 260.161 95.624L260.845 97.316C260.437 97.628 259.939 97.856 259.351 98C258.775 98.144 258.301 98.216 257.929 98.216ZM259.207 92.762C259.087 92.174 258.871 91.742 258.559 91.466C258.247 91.178 257.857 91.034 257.389 91.034C256.909 91.034 256.507 91.184 256.183 91.484C255.859 91.772 255.649 92.198 255.553 92.762H259.207ZM265.668 85.292V98H263.346V85.49L265.668 85.292ZM272.033 98.216C270.653 98.216 269.573 97.802 268.793 96.974C268.025 96.134 267.641 95.012 267.641 93.608C267.641 92.216 268.043 91.106 268.847 90.278C269.663 89.45 270.773 89.036 272.177 89.036C273.629 89.036 274.751 89.468 275.543 90.332C276.347 91.184 276.749 92.306 276.749 93.698C276.749 95.09 276.317 96.194 275.453 97.01C274.589 97.814 273.449 98.216 272.033 98.216ZM274.337 93.698C274.337 92.87 274.151 92.222 273.779 91.754C273.419 91.274 272.903 91.034 272.231 91.034C271.547 91.034 271.013 91.244 270.629 91.664C270.245 92.084 270.053 92.726 270.053 93.59C270.053 94.454 270.215 95.108 270.539 95.552C270.875 95.996 271.385 96.218 272.069 96.218C272.741 96.218 273.287 96.02 273.707 95.624C274.127 95.216 274.337 94.574 274.337 93.698ZM282.614 96.218C283.418 96.218 283.982 95.93 284.306 95.354C284.63 94.766 284.792 94.172 284.792 93.572C284.792 92.888 284.648 92.276 284.36 91.736C284.072 91.196 283.49 90.926 282.614 90.926C282.362 90.926 282.098 90.974 281.822 91.07C281.558 91.154 281.306 91.274 281.066 91.43V95.714C281.306 95.858 281.558 95.978 281.822 96.074C282.098 96.17 282.362 96.218 282.614 96.218ZM278.744 89.27H279.932L280.436 89.918C280.832 89.618 281.294 89.378 281.822 89.198C282.35 89.018 282.818 88.928 283.226 88.928C284.51 88.928 285.494 89.372 286.178 90.26C286.862 91.148 287.204 92.252 287.204 93.572C287.204 94.892 286.85 95.996 286.142 96.884C285.446 97.772 284.474 98.216 283.226 98.216C282.914 98.216 282.56 98.162 282.164 98.054C281.78 97.946 281.414 97.796 281.066 97.604V101.762L278.744 101.942V89.27ZM293.595 98.216C292.083 98.216 290.889 97.802 290.013 96.974C289.149 96.146 288.717 95.036 288.717 93.644C288.717 92.252 289.107 91.136 289.887 90.296C290.679 89.456 291.753 89.036 293.109 89.036C294.477 89.036 295.479 89.492 296.115 90.404C296.763 91.304 297.087 92.372 297.087 93.608V94.328H291.201C291.309 94.904 291.573 95.366 291.993 95.714C292.413 96.05 292.965 96.218 293.649 96.218C294.045 96.218 294.399 96.17 294.711 96.074C295.035 95.966 295.407 95.816 295.827 95.624L296.511 97.316C296.103 97.628 295.605 97.856 295.017 98C294.441 98.144 293.967 98.216 293.595 98.216ZM294.873 92.762C294.753 92.174 294.537 91.742 294.225 91.466C293.913 91.178 293.523 91.034 293.055 91.034C292.575 91.034 292.173 91.184 291.849 91.484C291.525 91.772 291.315 92.198 291.219 92.762H294.873ZM303.674 89.27L304.142 91.142C303.746 91.142 303.284 91.256 302.756 91.484C302.24 91.712 301.73 92.048 301.226 92.492V98H298.886V89.27H300.11L300.884 90.548C301.244 90.236 301.682 89.948 302.198 89.684C302.714 89.408 303.206 89.27 303.674 89.27Z" fill="white"/>
</g>
<path d="M334.338 204.231C334.338 201.448 335.443 198.778 337.411 196.81C339.38 194.842 342.049 193.736 344.833 193.736H355.328C356.256 193.736 357.145 194.105 357.801 194.761C358.458 195.417 358.826 196.307 358.826 197.234C358.826 198.162 358.458 199.052 357.801 199.708C357.145 200.364 356.256 200.733 355.328 200.733H344.833C343.905 200.733 343.015 201.101 342.359 201.757C341.703 202.413 341.334 203.303 341.334 204.231V207.729C341.334 208.657 341.703 209.547 342.359 210.203C343.015 210.859 343.905 211.228 344.833 211.228H348.331C351.114 211.228 353.784 212.334 355.752 214.302C357.72 216.27 358.826 218.939 358.826 221.723V225.221C358.826 228.005 357.72 230.674 355.752 232.642C353.784 234.611 351.114 235.716 348.331 235.716H337.836C336.908 235.716 336.018 235.348 335.362 234.692C334.706 234.036 334.338 233.146 334.338 232.218C334.338 231.29 334.706 230.4 335.362 229.744C336.018 229.088 336.908 228.72 337.836 228.72H348.331C349.259 228.72 350.149 228.351 350.805 227.695C351.461 227.039 351.829 226.149 351.829 225.221V221.723C351.829 220.795 351.461 219.905 350.805 219.249C350.149 218.593 349.259 218.225 348.331 218.225H344.833C342.049 218.225 339.38 217.119 337.411 215.151C335.443 213.182 334.338 210.513 334.338 207.729V204.231ZM330.839 197.234C330.839 196.307 330.471 195.417 329.814 194.761C329.158 194.105 328.269 193.736 327.341 193.736C326.413 193.736 325.523 194.105 324.867 194.761C324.211 195.417 323.842 196.307 323.842 197.234V225.221C323.842 226.149 323.474 227.039 322.818 227.695C322.162 228.351 321.272 228.72 320.344 228.72H313.347C312.419 228.72 311.53 229.088 310.874 229.744C310.218 230.4 309.849 231.29 309.849 232.218C309.849 233.146 310.218 234.036 310.874 234.692C311.53 235.348 312.419 235.716 313.347 235.716H320.344C323.128 235.716 325.797 234.611 327.765 232.642C329.733 230.674 330.839 228.005 330.839 225.221V197.234ZM288.859 183.241C288.859 178.602 290.702 174.153 293.982 170.872C297.262 167.592 301.711 165.749 306.351 165.749H355.328C359.967 165.749 364.416 167.592 367.696 170.872C370.977 174.153 372.82 178.602 372.82 183.241V232.218C372.82 236.857 370.977 241.306 367.696 244.587C364.416 247.867 359.967 249.71 355.328 249.71H306.351C301.711 249.71 297.262 247.867 293.982 244.587C290.702 241.306 288.859 236.857 288.859 232.218V183.241ZM306.351 172.746C303.567 172.746 300.898 173.852 298.929 175.82C296.961 177.788 295.855 180.457 295.855 183.241V232.218C295.855 235.001 296.961 237.671 298.929 239.639C300.898 241.607 303.567 242.713 306.351 242.713H355.328C358.111 242.713 360.781 241.607 362.749 239.639C364.717 237.671 365.823 235.001 365.823 232.218V183.241C365.823 180.457 364.717 177.788 362.749 175.82C360.781 173.852 358.111 172.746 355.328 172.746H306.351Z" fill="white"/>
<path d="M458.591 165.525L417.874 180.33L425.182 235.157L458.591 253.715L492.001 235.15L499.309 180.33L458.591 165.525ZM458.591 172.97L491.626 184.983L485.525 230.742L458.591 245.704L431.654 230.742L425.556 184.983L458.591 172.97ZM458.591 179.743L437.601 228.72H444.598L449.111 218.225H468.072L472.585 228.72H479.581L458.591 179.743ZM458.591 195.66L458.661 195.87L461.11 201.992L465.063 211.228H452.119L456.072 201.992L458.521 195.87L458.591 195.66Z" fill="white"/>
<path d="M575.605 160.388L536.368 199.618L541.334 204.584L580.564 165.354L575.605 160.388ZM536.368 214.517L575.598 253.754L580.564 248.78L541.334 209.55L536.368 214.517ZM590.503 253.747L629.733 214.524L624.767 209.55L585.537 248.78L590.503 253.747ZM629.733 199.611L590.503 160.388L585.537 165.354L624.767 204.584L629.733 199.618V199.611ZM629.733 214.524C630.713 213.545 631.489 212.376 632.019 211.098C632.549 209.819 632.822 208.448 632.822 207.064C632.822 205.68 632.549 204.309 632.019 203.03C631.489 201.752 630.713 200.59 629.733 199.611L624.767 204.577C625.094 204.904 625.354 205.291 625.531 205.718C625.708 206.145 625.799 206.602 625.799 207.064C625.799 207.526 625.708 207.983 625.531 208.41C625.354 208.837 625.094 209.224 624.767 209.55L629.733 214.524ZM575.598 253.754C576.577 254.733 577.745 255.509 579.024 256.039C580.303 256.569 581.674 256.842 583.058 256.842C584.442 256.842 585.813 256.569 587.091 256.039C588.37 255.509 589.532 254.733 590.511 253.754L585.537 248.787C585.211 249.115 584.831 249.374 584.404 249.551C583.977 249.728 583.52 249.819 583.058 249.819C582.596 249.819 582.138 249.728 581.712 249.551C581.285 249.374 580.898 249.115 580.571 248.787L575.598 253.754ZM536.368 199.618C535.389 200.597 534.612 201.766 534.082 203.044C533.553 204.323 533.28 205.694 533.28 207.078C533.28 208.462 533.553 209.833 534.082 211.112C534.612 212.39 535.389 213.552 536.368 214.531L541.334 209.557C541.007 209.231 540.748 208.851 540.571 208.424C540.394 207.997 540.302 207.54 540.302 207.078C540.302 206.616 540.394 206.159 540.571 205.732C540.748 205.305 541.007 204.911 541.334 204.584L536.368 199.618ZM580.564 165.361C580.891 165.034 581.278 164.775 581.705 164.598C582.131 164.421 582.589 164.33 583.051 164.33C583.513 164.33 583.97 164.421 584.397 164.598C584.824 164.775 585.211 165.034 585.537 165.361L590.503 160.388C589.525 159.409 588.356 158.632 587.077 158.103C585.799 157.573 584.428 157.3 583.044 157.3C581.66 157.3 580.289 157.573 579.01 158.103C577.731 158.632 576.57 159.409 575.591 160.388L580.557 165.354L580.564 165.361ZM566.516 174.444L573.54 181.468L578.513 176.495L571.489 169.471L566.516 174.444ZM583.051 189.51C582.119 189.51 581.226 189.14 580.567 188.482C579.909 187.823 579.539 186.93 579.539 185.998H572.515C572.515 188.793 573.625 191.473 575.601 193.449C577.577 195.425 580.256 196.535 583.051 196.535V189.51ZM586.563 185.998C586.563 186.93 586.193 187.823 585.534 188.482C584.876 189.14 583.982 189.51 583.051 189.51V196.535C585.845 196.535 588.525 195.425 590.501 193.449C592.477 191.473 593.587 188.793 593.587 185.998H586.563ZM583.051 182.486C583.982 182.486 584.876 182.856 585.534 183.515C586.193 184.174 586.563 185.067 586.563 185.998H593.587C593.587 183.204 592.477 180.524 590.501 178.548C588.525 176.572 585.845 175.462 583.051 175.462V182.486ZM583.051 175.462C580.256 175.462 577.577 176.572 575.601 178.548C573.625 180.524 572.515 183.204 572.515 185.998H579.539C579.539 185.067 579.909 184.174 580.567 183.515C581.226 182.856 582.119 182.486 583.051 182.486V175.462ZM587.588 195.509L598.125 206.045L603.091 201.072L592.555 190.536L587.588 195.509ZM604.123 210.583C603.192 210.583 602.299 210.213 601.64 209.554C600.981 208.896 600.611 208.002 600.611 207.071H593.587C593.587 209.865 594.697 212.545 596.673 214.521C598.649 216.497 601.329 217.607 604.123 217.607V210.583ZM607.635 207.071C607.635 208.002 607.265 208.896 606.607 209.554C605.948 210.213 605.055 210.583 604.123 210.583V217.607C606.918 217.607 609.598 216.497 611.574 214.521C613.55 212.545 614.66 209.865 614.66 207.071H607.635ZM604.123 203.559C605.055 203.559 605.948 203.929 606.607 204.588C607.265 205.246 607.635 206.139 607.635 207.071H614.66C614.66 204.277 613.55 201.597 611.574 199.621C609.598 197.645 606.918 196.535 604.123 196.535V203.559ZM604.123 196.535C601.329 196.535 598.649 197.645 596.673 199.621C594.697 201.597 593.587 204.277 593.587 207.071H600.611C600.611 206.139 600.981 205.246 601.64 204.588C602.299 203.929 603.192 203.559 604.123 203.559V196.535ZM579.539 193.023V221.119H586.563V193.023H579.539ZM583.051 231.656C582.119 231.656 581.226 231.286 580.567 230.627C579.909 229.968 579.539 229.075 579.539 228.143H572.515C572.515 230.938 573.625 233.618 575.601 235.594C577.577 237.57 580.256 238.68 583.051 238.68V231.656ZM586.563 228.143C586.563 229.075 586.193 229.968 585.534 230.627C584.876 231.286 583.982 231.656 583.051 231.656V238.68C585.845 238.68 588.525 237.57 590.501 235.594C592.477 233.618 593.587 230.938 593.587 228.143H586.563ZM583.051 224.631C583.982 224.631 584.876 225.001 585.534 225.66C586.193 226.319 586.563 227.212 586.563 228.143H593.587C593.587 225.349 592.477 222.669 590.501 220.693C588.525 218.717 585.845 217.607 583.051 217.607V224.631ZM583.051 217.607C580.256 217.607 577.577 218.717 575.601 220.693C573.625 222.669 572.515 225.349 572.515 228.143H579.539C579.539 227.212 579.909 226.319 580.567 225.66C581.226 225.001 582.119 224.631 583.051 224.631V217.607Z" fill="white"/>
<path opacity="0.2" d="M238.071 190.238H213.582V165.749L238.071 190.238Z" fill="white"/>
<path d="M168.103 230.469C168.103 235.279 171.243 239.215 175.1 239.215C175.944 239.197 176.776 239.007 177.545 238.657C178.313 238.306 179.002 237.803 179.569 237.177C179.882 236.828 180.263 236.545 180.687 236.346C181.112 236.146 181.572 236.035 182.041 236.017C182.509 235.999 182.977 236.075 183.415 236.242C183.854 236.408 184.255 236.661 184.593 236.986C184.932 237.31 185.202 237.699 185.387 238.13C185.573 238.561 185.67 239.025 185.672 239.494C185.675 239.963 185.583 240.428 185.402 240.861C185.221 241.293 184.955 241.685 184.62 242.013C183.403 243.325 181.931 244.375 180.294 245.097C178.657 245.819 176.889 246.198 175.1 246.211C167.382 246.211 161.107 239.149 161.107 230.469C161.107 221.789 167.382 214.726 175.1 214.726C176.889 214.74 178.657 215.119 180.294 215.841C181.931 216.563 183.403 217.612 184.62 218.924C184.955 219.252 185.221 219.644 185.402 220.077C185.583 220.51 185.675 220.975 185.672 221.444C185.67 221.913 185.573 222.376 185.387 222.807C185.202 223.238 184.932 223.627 184.593 223.952C184.255 224.276 183.854 224.529 183.415 224.696C182.977 224.862 182.509 224.939 182.041 224.921C181.572 224.903 181.112 224.791 180.687 224.592C180.263 224.393 179.882 224.11 179.569 223.761C179.001 223.136 178.312 222.633 177.544 222.283C176.776 221.932 175.944 221.742 175.1 221.723C171.243 221.723 168.103 225.659 168.103 230.469ZM202.912 226.669C201.163 226.161 199.352 225.641 198.342 224.99C197.791 224.635 197.804 224.552 197.853 224.159C197.859 223.841 197.942 223.529 198.094 223.25C198.246 222.97 198.463 222.732 198.727 222.554C200.739 221.189 205.44 221.797 207.399 222.309C208.296 222.545 209.251 222.415 210.053 221.947C210.854 221.479 211.437 220.712 211.673 219.814C211.909 218.916 211.779 217.962 211.311 217.16C210.843 216.359 210.076 215.776 209.179 215.54C208.251 215.299 199.995 213.257 194.822 216.746C193.727 217.481 192.806 218.447 192.126 219.577C191.446 220.707 191.023 221.972 190.886 223.284C190.012 230.228 196.851 232.209 200.944 233.39C206.222 234.916 206.686 235.541 206.533 236.709C206.397 237.763 205.982 238.17 205.597 238.428C203.586 239.766 198.963 239.11 197.048 238.585C196.159 238.349 195.212 238.473 194.414 238.93C193.615 239.387 193.029 240.14 192.781 241.026C192.534 241.912 192.646 242.86 193.092 243.665C193.539 244.469 194.285 245.065 195.168 245.324C197.335 245.892 199.565 246.186 201.806 246.198C204.355 246.198 207.184 245.761 209.454 244.248C210.574 243.504 211.516 242.52 212.21 241.369C212.905 240.217 213.336 238.926 213.473 237.588C214.457 230.032 207.233 227.919 202.912 226.669ZM230.899 226.669C229.15 226.161 227.339 225.641 226.329 224.99C225.783 224.635 225.791 224.552 225.84 224.159C225.846 223.841 225.929 223.529 226.081 223.25C226.233 222.97 226.45 222.732 226.714 222.554C228.726 221.189 233.422 221.797 235.381 222.309C236.279 222.545 237.234 222.415 238.035 221.947C238.837 221.479 239.42 220.712 239.656 219.814C239.892 218.916 239.762 217.962 239.294 217.16C238.826 216.359 238.059 215.776 237.161 215.54C236.238 215.299 227.978 213.257 222.805 216.746C221.714 217.484 220.798 218.451 220.122 219.581C219.446 220.71 219.025 221.974 218.891 223.284C218.016 230.228 224.86 232.209 228.949 233.39C234.222 234.916 234.686 235.541 234.537 236.709C234.402 237.763 233.986 238.17 233.597 238.428C231.586 239.766 226.968 239.11 225.052 238.585C224.157 238.336 223.199 238.452 222.39 238.909C221.58 239.366 220.986 240.125 220.736 241.021C220.487 241.916 220.603 242.874 221.06 243.683C221.517 244.493 222.277 245.088 223.172 245.337C225.341 245.905 227.573 246.199 229.815 246.211C232.36 246.211 235.193 245.774 237.463 244.261C238.582 243.517 239.523 242.533 240.217 241.382C240.911 240.23 241.342 238.939 241.477 237.601C242.444 230.032 235.22 227.919 230.895 226.669H230.899ZM164.605 200.733V169.247C164.605 167.392 165.342 165.612 166.654 164.3C167.966 162.988 169.746 162.251 171.602 162.251H213.582C214.042 162.25 214.497 162.34 214.921 162.516C215.346 162.692 215.732 162.949 216.057 163.274L240.546 187.763C240.871 188.088 241.128 188.474 241.304 188.898C241.479 189.323 241.569 189.778 241.569 190.238V200.733C241.569 201.661 241.2 202.55 240.544 203.206C239.888 203.862 238.998 204.231 238.071 204.231C237.143 204.231 236.253 203.862 235.597 203.206C234.941 202.55 234.572 201.661 234.572 200.733V193.736H213.582C212.654 193.736 211.764 193.367 211.108 192.711C210.452 192.055 210.084 191.165 210.084 190.238V169.247H171.602V200.733C171.602 201.661 171.233 202.55 170.577 203.206C169.921 203.862 169.031 204.231 168.103 204.231C167.176 204.231 166.286 203.862 165.63 203.206C164.974 202.55 164.605 201.661 164.605 200.733ZM217.08 186.739H229.622L217.08 174.193V186.739Z" fill="white"/>
<path d="M80.4658 168.081L83.7309 173.212L86.9961 168.081V175.078H91.6606V161.085H86.9961L83.7309 166.215L80.9323 161.085H75.8013V175.078H80.4658V168.081ZM105.188 175.078V170.414H98.6573V161.085H93.9928V175.078H105.188ZM65.073 175.078H69.7375V165.749H73.9355V161.085H60.8749V165.749H65.073V175.078ZM50.1466 170.414H54.3447V175.078H59.0092V161.085H54.3447V165.749H50.1466V161.085H45.4821V175.078H50.1466V170.414ZM42.6834 179.743L48.2808 246.911L75.3349 254.374L102.389 246.911L107.986 179.743H42.6834ZM95.3922 201.199H63.6736L64.6065 209.595H94.4593L92.127 235.25L75.3349 239.914L58.5427 235.25L57.1434 221.723H65.5394L66.0059 228.72L75.3349 231.052L84.6638 228.72L85.5967 217.991H56.6769L54.3447 193.27H96.3251L95.3922 201.199Z" fill="white"/>
<g clip-path="url(#clip0_9_2)">
<path d="M928.04 234.472C927.04 234.472 926.064 234.768 925.233 235.32C924.402 235.873 923.755 236.659 923.372 237.578C922.99 238.497 922.89 239.508 923.085 240.484C923.28 241.46 923.761 242.356 924.467 243.06C925.174 243.763 926.074 244.242 927.054 244.436C928.034 244.631 929.05 244.531 929.973 244.15C930.896 243.77 931.685 243.125 932.24 242.298C932.795 241.47 933.091 240.498 933.091 239.503C933.091 238.169 932.559 236.889 931.612 235.946C930.664 235.002 929.379 234.472 928.04 234.472ZM928.04 242.599C927.425 242.599 926.824 242.417 926.312 242.077C925.801 241.737 925.403 241.253 925.167 240.687C924.932 240.122 924.871 239.499 924.99 238.899C925.11 238.298 925.407 237.747 925.841 237.314C926.276 236.881 926.83 236.586 927.433 236.467C928.036 236.347 928.661 236.408 929.229 236.643C929.797 236.877 930.283 237.274 930.625 237.783C930.966 238.292 931.149 238.891 931.149 239.503C931.149 240.324 930.821 241.111 930.238 241.692C929.655 242.272 928.864 242.599 928.04 242.599Z" fill="#E4E4E4"/>
<path d="M908.609 230.603H928.04V249.752C928.04 250.42 927.773 251.061 927.298 251.534C926.824 252.007 926.18 252.272 925.508 252.272H911.141C910.469 252.272 909.825 252.007 909.351 251.534C908.876 251.061 908.609 250.42 908.609 249.752V230.603Z" fill="#E4E4E4"/>
<path d="M973.438 252.71H681.394C681.286 252.699 681.186 252.647 681.113 252.567C681.04 252.486 681 252.381 681 252.273C681 252.164 681.04 252.059 681.113 251.979C681.186 251.898 681.286 251.847 681.394 251.835H973.438C973.546 251.847 973.646 251.898 973.719 251.979C973.792 252.059 973.832 252.164 973.832 252.273C973.832 252.381 973.792 252.486 973.719 252.567C973.646 252.647 973.546 252.699 973.438 252.71Z" fill="#CACACA"/>
<path d="M720.311 244.44L718.505 253.333L752.092 264.503L754.758 251.378L720.311 244.44Z" fill="#FFB6B6"/>
<path d="M723.688 242.759L720.13 260.273L720.13 260.273C719.528 263.233 717.771 265.834 715.244 267.504C712.716 269.173 709.627 269.775 706.654 269.176L706.29 269.103L712.115 240.429L723.688 242.759Z" fill="#2F2E41"/>
<path d="M758.373 121.945C770.968 121.945 781.179 111.778 781.179 99.2359C781.179 86.6939 770.968 76.5267 758.373 76.5267C745.777 76.5267 735.566 86.6939 735.566 99.2359C735.566 111.778 745.777 121.945 758.373 121.945Z" fill="#FEB8B8"/>
<path d="M779.674 79.6443C776.264 74.131 770.927 70.0685 764.689 68.2387L761.889 70.2732V67.6315C760.391 67.4032 758.875 67.3152 757.361 67.3688L754.945 69.5451V67.5496C751.369 67.9921 747.923 69.1678 744.826 71.0023C741.728 72.8369 739.046 75.2906 736.949 78.2087C731.703 85.7389 730.818 96.215 735.977 103.806C737.393 99.4714 739.112 95.4047 740.529 91.0709C741.642 91.222 742.77 91.2274 743.885 91.0871L745.608 87.0834L746.089 90.9177C751.431 90.4545 759.353 89.437 764.416 88.5049L763.923 85.5633L766.869 88.0076C768.42 87.6521 769.341 87.3294 769.265 87.083C773.031 93.1281 777.64 96.9891 781.405 103.034C782.835 94.5102 784.481 87.4227 779.674 79.6443Z" fill="#282732"/>
<path d="M765.793 247.84C798.224 247.84 824.515 240.517 824.515 231.484C824.515 222.451 798.224 215.128 765.793 215.128C733.362 215.128 707.071 222.451 707.071 231.484C707.071 240.517 733.362 247.84 765.793 247.84Z" fill="#2F2E41"/>
<path d="M807.422 157.633C806.638 152.935 805.829 148.147 803.636 143.915C802.195 141.143 799.907 138.501 796.823 137.953C796.216 137.899 795.619 137.761 795.049 137.544C794.146 137.11 782.003 130.208 780.073 129.006C778.416 127.974 775.8 126.063 774.481 126.063C773.154 126.034 768.066 127.213 748.206 125.667C744.866 127.002 741.631 128.586 738.529 130.405C738.465 130.363 717.917 141.351 717.145 141.322C715.683 141.26 714.324 142.192 713.485 143.366C712.648 144.54 712.255 145.993 711.843 147.398C716.331 157.35 720.438 167.316 724.926 177.268C725.136 177.643 725.248 178.065 725.251 178.494C725.16 178.94 724.97 179.359 724.692 179.72C722.491 183.241 722.561 187.669 722.802 191.807C723.042 195.945 723.34 200.316 721.483 204.025C720.977 205.044 720.321 205.976 719.84 206.994C718.715 209.3 718.308 216.677 718.965 219.155L801.301 221.503C799.53 216.658 807.422 157.633 807.422 157.633Z" fill="#EFEEF3"/>
<path d="M704.726 177.709C704.562 178.893 704.545 180.092 704.677 181.279L705.857 198.155C705.968 199.745 706.077 201.332 706.227 202.918C706.51 205.997 706.933 209.052 707.458 212.102C707.469 212.535 707.653 212.946 707.969 213.244C708.285 213.542 708.706 213.704 709.141 213.693C714.336 214.787 719.703 214.743 725.004 214.445C733.094 213.996 753.791 213.145 755.056 211.509C756.32 209.874 755.583 207.228 753.935 205.906C752.286 204.583 724.973 201.359 724.973 201.359C725.24 199.253 726.045 197.269 726.809 195.27C728.181 191.724 729.462 188.061 729.486 184.262C729.511 180.464 728.074 176.47 724.949 174.293C722.378 172.507 719.068 172.175 715.935 172.249C713.656 172.314 709.718 171.77 707.636 172.658C705.989 173.38 705.034 176.103 704.726 177.709Z" fill="#FBBEBE"/>
<path d="M807.568 215.856C808.935 215.337 810.442 215.525 811.908 215.721C816.627 216.363 821.415 217.022 825.788 218.899C827.841 219.774 829.796 220.943 831.184 222.664C832.415 224.213 833.135 226.111 833.817 227.979L835.394 232.281C836.064 233.897 836.526 235.591 836.769 237.323C837.262 242.471 833.726 247.325 829.279 249.999C824.832 252.674 819.596 253.626 814.496 254.624C809.395 255.621 804.275 256.725 799.195 257.895C796.826 258.507 794.422 258.978 791.997 259.305C786.56 259.918 780.877 259.015 775.71 260.806C773.657 261.522 771.641 262.585 769.511 263.08C768.095 263.376 766.664 263.593 765.224 263.73L755.447 264.842C753.458 265.107 751.457 265.26 749.451 265.3C745.181 265.3 740.98 264.293 736.833 263.286C736.392 263.209 735.973 263.04 735.602 262.791C734.945 262.276 734.801 261.364 734.707 260.538C734.288 256.883 733.921 253.223 733.607 249.56C733.509 248.37 733.435 247.082 734.088 246.08C734.909 244.854 736.511 244.469 737.973 244.231C744.172 243.222 750.452 242.788 756.731 242.935C759.117 240.56 763.051 240.547 766.176 239.255C767.326 238.729 768.439 238.127 769.507 237.452C775.097 234.204 781.343 232.239 787.792 231.699C789.055 231.66 790.31 231.482 791.534 231.167C793.952 230.419 796.158 228.382 798.642 228.881C798.95 228.035 799.163 226.902 799.873 226.322C800.225 226.023 800.661 225.823 800.986 225.504C801.672 224.813 801.733 223.725 801.63 222.76C801.527 221.795 801.297 220.806 801.548 219.865C801.652 219.509 801.806 219.169 802.004 218.855C803.231 216.739 805.092 215.652 807.568 215.856Z" fill="#2F2E41"/>
<path d="M711.605 147.701C711.206 148.118 710.895 148.612 710.694 149.153C707.375 156.602 705.414 164.58 704.904 172.713C704.913 173.11 704.821 173.502 704.637 173.854C704.456 174.088 704.254 174.306 704.034 174.504C703.842 174.731 703.696 174.993 703.606 175.275C703.516 175.558 703.482 175.855 703.507 176.151C703.533 176.446 703.616 176.734 703.753 176.997C703.89 177.26 704.077 177.494 704.305 177.685C704.342 177.717 704.38 177.747 704.42 177.776C705.097 176.506 706.719 176.091 708.161 175.981C715.063 175.437 721.806 178.635 728.73 178.393C728.241 176.713 727.539 175.098 727.14 173.397C725.379 165.844 729.773 157.621 727.079 150.347C726.541 148.891 725.641 147.46 724.225 146.822C723.638 146.587 723.024 146.425 722.398 146.341C720.648 146.026 717.166 144.68 715.474 145.22C714.85 145.421 714.604 146.005 714.086 146.359C713.3 146.859 712.257 147.042 711.605 147.701Z" fill="#EFEEF3"/>
<path d="M807.471 172.658C805.389 171.77 801.451 172.314 799.172 172.249C796.039 172.175 792.729 172.507 790.159 174.293C787.034 176.47 785.596 180.464 785.621 184.262C785.646 188.061 786.927 191.724 788.299 195.27C789.062 197.269 789.867 199.253 790.134 201.359C790.134 201.359 762.821 204.583 761.173 205.906C759.524 207.228 758.787 209.874 760.052 211.509C761.316 213.145 800.771 214.787 805.966 213.693C806.401 213.704 806.823 213.542 807.138 213.244C807.454 212.946 807.638 212.535 807.65 212.102C808.175 209.052 808.598 205.997 808.881 202.918C809.031 201.332 809.14 199.745 809.25 198.155L810.431 181.279C810.562 180.092 810.546 178.893 810.381 177.709C810.074 176.103 809.119 173.38 807.471 172.658Z" fill="#FBBEBE"/>
<path d="M801.021 146.359C800.504 146.005 800.257 145.421 799.633 145.22C797.942 144.68 794.459 146.026 792.71 146.341C792.083 146.425 791.469 146.587 790.882 146.822C789.466 147.46 788.567 148.891 788.029 150.347C785.335 157.621 789.729 165.844 787.967 173.397C787.569 175.098 786.866 176.713 786.378 178.393C793.301 178.635 800.044 175.437 806.947 175.981C808.388 176.091 810.01 176.506 810.688 177.776C810.727 177.747 810.765 177.717 810.803 177.685C811.03 177.494 811.218 177.26 811.354 176.997C811.491 176.734 811.575 176.446 811.6 176.151C811.625 175.855 811.591 175.558 811.501 175.275C811.411 174.993 811.266 174.731 811.074 174.504C810.854 174.306 810.652 174.088 810.47 173.854C810.286 173.502 810.194 173.11 810.203 172.713C809.693 164.58 807.733 156.602 804.413 149.153C804.212 148.612 803.902 148.118 803.502 147.701C802.85 147.042 801.807 146.859 801.021 146.359Z" fill="#EFEEF3"/>
<path d="M812.568 257.135L811.367 266.129L775.957 265.798L777.729 252.524L812.568 257.135Z" fill="#FFB6B6"/>
<path d="M821.629 256L817.758 285L817.39 284.951C814.384 284.553 811.659 282.983 809.816 280.584C807.973 278.186 807.161 275.157 807.561 272.164L807.561 272.163L809.925 254.451L821.629 256Z" fill="#2F2E41"/>
<path d="M729.262 220.408C729.262 220.817 728.618 220.408 728.559 219.97C728.107 216.662 725.47 213.934 722.399 212.61C719.327 211.285 715.828 211.215 712.502 211.53C707.472 212.004 701.825 213.922 699.986 218.604C699.551 219.698 695.473 229.444 695.871 231.636C696.943 237.483 700.959 242.484 705.825 245.947C710.691 249.411 716.377 251.48 722.049 253.346C737.044 258.271 752.429 261.93 768.041 264.284C770.571 264.665 773.125 265.016 775.548 265.826C777.716 266.549 779.744 267.633 781.864 268.483C786.791 270.454 792.093 271.158 797.345 271.849C798.24 271.964 799.267 272.045 799.928 271.44C800.782 270.652 800.499 269.277 800.256 268.144C799.365 263.838 800.113 259.355 802.355 255.567C803.234 254.095 804.377 252.586 804.211 250.882C804.014 248.895 802.026 247.488 800.047 247.169C798.068 246.85 796.056 247.321 794.067 247.578C793.386 247.734 792.672 247.663 792.035 247.378C791.739 247.179 791.472 246.943 791.238 246.674C789.869 245.359 788.117 244.51 786.232 244.247C784.348 243.985 782.429 244.324 780.75 245.215C780.015 245.624 778.904 244.712 778.139 244.369L769.503 240.476C759.582 236.007 749.611 231.516 739.115 228.687C738.278 228.523 737.482 228.193 736.774 227.718C736.253 227.309 735.879 226.754 735.399 226.299C734.351 225.313 732.892 224.921 731.637 224.221C730.382 223.522 728.975 221.81 729.262 220.408Z" fill="#2F2E41"/>
<path d="M751.618 214.499C755.018 214.499 757.773 211.754 757.773 208.369C757.773 204.984 755.018 202.24 751.618 202.24C748.219 202.24 745.463 204.984 745.463 208.369C745.463 211.754 748.219 214.499 751.618 214.499Z" fill="#FBBEBE"/>
<path d="M765.248 214.499C768.647 214.499 771.403 211.754 771.403 208.369C771.403 204.984 768.647 202.24 765.248 202.24C761.848 202.24 759.092 204.984 759.092 208.369C759.092 211.754 761.848 214.499 765.248 214.499Z" fill="#FBBEBE"/>
<path d="M803.243 222.181H718.678C717.691 222.18 716.744 221.789 716.046 221.094C715.348 220.398 714.955 219.456 714.954 218.473V167.387C714.955 166.404 715.348 165.462 716.046 164.767C716.744 164.071 717.691 163.68 718.678 163.679H803.243C804.231 163.68 805.177 164.071 805.875 164.767C806.573 165.462 806.966 166.404 806.967 167.387V218.473C806.966 219.456 806.573 220.398 805.875 221.094C805.177 221.789 804.231 222.18 803.243 222.181Z" fill="#282732"/>
<path d="M760.756 195.383C762.116 195.383 763.219 194.285 763.219 192.93C763.219 191.575 762.116 190.477 760.756 190.477C759.395 190.477 758.292 191.575 758.292 192.93C758.292 194.285 759.395 195.383 760.756 195.383Z" fill="white"/>
<path d="M1062.64 120.136H952.775C952.192 120.135 951.633 119.905 951.221 119.494C950.809 119.084 950.577 118.527 950.577 117.947V97.3267H951.456V117.947C951.456 118.295 951.595 118.629 951.843 118.875C952.09 119.122 952.425 119.26 952.775 119.261H1062.64C1062.99 119.26 1063.33 119.122 1063.58 118.875C1063.82 118.629 1063.96 118.295 1063.96 117.947V97.1826H1064.84V117.947C1064.84 118.527 1064.61 119.084 1064.2 119.494C1063.79 119.905 1063.23 120.135 1062.64 120.136Z" fill="#64617E"/>
<path d="M1102.47 96.8889H844.291V97.7645H1102.47V96.8889Z" fill="#64617E"/>
<path d="M844.31 104.789C848.487 104.789 851.873 101.418 851.873 97.2583C851.873 93.099 848.487 89.7273 844.31 89.7273C840.133 89.7273 836.747 93.099 836.747 97.2583C836.747 101.418 840.133 104.789 844.31 104.789Z" fill="#EFEEF3"/>
<path d="M921.166 104.789C925.343 104.789 928.729 101.418 928.729 97.2583C928.729 93.099 925.343 89.7273 921.166 89.7273C916.989 89.7273 913.603 93.099 913.603 97.2583C913.603 101.418 916.989 104.789 921.166 104.789Z" fill="#EFEEF3"/>
<path d="M973.325 126.925C977.502 126.925 980.888 123.553 980.888 119.394C980.888 115.235 977.502 111.863 973.325 111.863C969.148 111.863 965.762 115.235 965.762 119.394C965.762 123.553 969.148 126.925 973.325 126.925Z" fill="#2478A0"/>
<path d="M1012.98 126.925C1017.15 126.925 1020.54 123.553 1020.54 119.394C1020.54 115.235 1017.15 111.863 1012.98 111.863C1008.8 111.863 1005.41 115.235 1005.41 119.394C1005.41 123.553 1008.8 126.925 1012.98 126.925Z" fill="#CCCCCC"/>
<path d="M993.763 104.789C997.94 104.789 1001.33 101.418 1001.33 97.2583C1001.33 93.099 997.94 89.7273 993.763 89.7273C989.585 89.7273 986.199 93.099 986.199 97.2583C986.199 101.418 989.585 104.789 993.763 104.789Z" fill="#EFEEF3"/>
<path d="M1101.44 104.789C1105.61 104.789 1109 101.418 1109 97.2583C1109 93.099 1105.61 89.7273 1101.44 89.7273C1097.26 89.7273 1093.87 93.099 1093.87 97.2583C1093.87 101.418 1097.26 104.789 1101.44 104.789Z" fill="#EFEEF3"/>
<path d="M1064.4 104.789C1068.58 104.789 1071.97 101.418 1071.97 97.2583C1071.97 93.099 1068.58 89.7273 1064.4 89.7273C1060.23 89.7273 1056.84 93.099 1056.84 97.2583C1056.84 101.418 1060.23 104.789 1064.4 104.789Z" fill="#EFEEF3"/>
<path d="M980.17 28H966.142V37.6272H980.17V28Z" fill="#2478A0"/>
<path d="M851.38 28H837.351V37.6272H851.38V28Z" fill="#EFEEF3"/>
<path d="M898.896 28H884.867V37.6272H898.896V28Z" fill="#CCCCCC"/>
<path d="M867.763 97.7645C867.647 97.7645 867.535 97.7183 867.452 97.6362C867.37 97.5541 867.323 97.4428 867.323 97.3267V75.7158C867.324 75.1355 867.556 74.5791 867.968 74.1687C868.38 73.7583 868.939 73.5275 869.522 73.5268H890.923C891.039 73.5268 891.151 73.5729 891.233 73.655C891.316 73.7371 891.362 73.8485 891.362 73.9646C891.362 74.0807 891.316 74.1921 891.233 74.2742C891.151 74.3563 891.039 74.4024 890.923 74.4024H869.522C869.172 74.4028 868.837 74.5413 868.59 74.7875C868.342 75.0337 868.203 75.3676 868.203 75.7158V97.3267C868.203 97.4428 868.156 97.5541 868.074 97.6362C867.992 97.7183 867.88 97.7645 867.763 97.7645Z" fill="#64617E"/>
<path d="M891.928 81.332C896.105 81.332 899.492 77.9602 899.492 73.8009C899.492 69.6417 896.105 66.2699 891.928 66.2699C887.751 66.2699 884.365 69.6417 884.365 73.8009C884.365 77.9602 887.751 81.332 891.928 81.332Z" fill="#E6E6E6"/>
<path d="M1037.04 97.3267H1036.16V75.7158C1036.16 75.1355 1036.39 74.5791 1036.8 74.1687C1037.21 73.7583 1037.77 73.5275 1038.35 73.5268H1059.76V74.4024H1038.35C1038 74.4028 1037.67 74.5413 1037.42 74.7875C1037.17 75.0337 1037.04 75.3676 1037.04 75.7158V97.3267Z" fill="#64617E"/>
<path d="M1060.76 81.332C1064.94 81.332 1068.32 77.9602 1068.32 73.8009C1068.32 69.6417 1064.94 66.2699 1060.76 66.2699C1056.58 66.2699 1053.2 69.6417 1053.2 73.8009C1053.2 77.9602 1056.58 81.332 1060.76 81.332Z" fill="#E6E6E6"/>
</g>
<defs>
<filter id="filter0_d_9_2" x="134.512" y="85.292" width="173.63" height="24.65" filterUnits="userSpaceOnUse" color-interpolation-filters="sRGB">
<feFlood flood-opacity="0" result="BackgroundImageFix"/>
<feColorMatrix in="SourceAlpha" type="matrix" values="0 0 0 0 0 0 0 0 0 0 0 0 0 0 0 0 0 0 127 0" result="hardAlpha"/>
<feOffset dy="4"/>
<feGaussianBlur stdDeviation="2"/>
<feColorMatrix type="matrix" values="0 0 0 0 0 0 0 0 0 0 0 0 0 0 0 0 0 0 0.25 0"/>
<feBlend mode="normal" in2="BackgroundImageFix" result="effect1_dropShadow_9_2"/>
<feBlend mode="normal" in="SourceGraphic" in2="effect1_dropShadow_9_2" result="shape"/>
</filter>
<clipPath id="clip0_9_2">
<rect width="428" height="257" fill="white" transform="translate(681 28)"/>
</clipPath>
</defs>
</svg>
