<svg width="871" height="220" viewBox="0 0 871 220" fill="none" xmlns="http://www.w3.org/2000/svg">
<rect width="871" height="220" fill="#E5E5E5"/>
<rect width="871" height="220" fill="#002B4A"/>
<path d="M61.668 29.34V39.888H71.316V29.52H75.96V54H71.316V43.632H61.668V54H57.024V29.52L61.668 29.34ZM88.5361 26.892H93.3961L89.9401 32.796H86.4121L88.5361 26.892ZM90.2641 54.432C87.2401 54.432 84.8521 53.604 83.1001 51.948C81.3721 50.292 80.5081 48.072 80.5081 45.288C80.5081 42.504 81.2881 40.272 82.8481 38.592C84.4321 36.912 86.5801 36.072 89.2921 36.072C92.0281 36.072 94.0321 36.984 95.3041 38.808C96.6001 40.608 97.2481 42.744 97.2481 45.216V46.656H85.4761C85.6921 47.808 86.2201 48.732 87.0601 49.428C87.9001 50.1 89.0041 50.436 90.3721 50.436C91.1641 50.436 91.8721 50.34 92.4961 50.148C93.1441 49.932 93.8881 49.632 94.7281 49.248L96.0961 52.632C95.2801 53.256 94.2841 53.712 93.1081 54C91.9561 54.288 91.0081 54.432 90.2641 54.432ZM92.8201 43.524C92.5801 42.348 92.1481 41.484 91.5241 40.932C90.9001 40.356 90.1201 40.068 89.1841 40.068C88.2241 40.068 87.4201 40.368 86.7721 40.968C86.1241 41.544 85.7041 42.396 85.5121 43.524H92.8201ZM109.161 40.068C107.841 40.068 106.809 40.572 106.065 41.58C105.321 42.564 104.949 43.8 104.949 45.288C104.949 46.8 105.321 48.036 106.065 48.996C106.809 49.956 107.841 50.436 109.161 50.436C109.977 50.436 110.709 50.34 111.357 50.148C112.029 49.932 112.785 49.632 113.625 49.248L114.957 52.632C114.141 53.256 113.145 53.712 111.969 54C110.817 54.288 109.869 54.432 109.125 54.432C106.293 54.432 104.085 53.604 102.501 51.948C100.917 50.292 100.125 48.072 100.125 45.288C100.125 42.504 100.917 40.272 102.501 38.592C104.085 36.912 106.293 36.072 109.125 36.072C109.869 36.072 110.805 36.228 111.933 36.54C113.085 36.852 114.093 37.308 114.957 37.908L113.625 41.256C112.785 40.872 112.029 40.584 111.357 40.392C110.709 40.176 109.977 40.068 109.161 40.068ZM129.153 53.64C128.769 53.952 128.217 54.204 127.497 54.396C126.801 54.612 126.177 54.72 125.625 54.72C123.465 54.72 121.761 54.18 120.513 53.1C119.289 51.996 118.677 50.436 118.677 48.42V40.176H116.337V36.576H118.677V32.436L123.321 31.608V36.576H126.489L127.929 40.176H123.321V47.592C123.321 48.504 123.537 49.26 123.969 49.86C124.401 50.436 125.037 50.724 125.877 50.724C126.189 50.724 126.501 50.688 126.813 50.616C127.125 50.544 127.449 50.424 127.785 50.256L129.153 53.64ZM139.812 54.432C137.052 54.432 134.892 53.604 133.332 51.948C131.796 50.268 131.028 48.024 131.028 45.216C131.028 42.432 131.832 40.212 133.44 38.556C135.072 36.9 137.292 36.072 140.1 36.072C143.004 36.072 145.248 36.936 146.832 38.664C148.44 40.368 149.244 42.612 149.244 45.396C149.244 48.18 148.38 50.388 146.652 52.02C144.924 53.628 142.644 54.432 139.812 54.432ZM144.42 45.396C144.42 43.74 144.048 42.444 143.304 41.508C142.584 40.548 141.552 40.068 140.208 40.068C138.84 40.068 137.772 40.488 137.004 41.328C136.236 42.168 135.852 43.452 135.852 45.18C135.852 46.908 136.176 48.216 136.824 49.104C137.496 49.992 138.516 50.436 139.884 50.436C141.228 50.436 142.32 50.04 143.16 49.248C144 48.432 144.42 47.148 144.42 45.396ZM162.558 36.54L163.494 40.284C162.702 40.284 161.778 40.512 160.722 40.968C159.69 41.424 158.67 42.096 157.662 42.984V54H152.982V36.54H155.43L156.978 39.096C157.698 38.472 158.574 37.896 159.606 37.368C160.638 36.816 161.622 36.54 162.558 36.54ZM183.788 35.928L180.584 44.46H187.064L183.788 35.928ZM185.876 29.52L195.38 53.352L190.7 54L188.504 48.24H179.216L177.056 54H172.376L181.916 29.52H185.876ZM202.737 28.584V54H198.093V28.98L202.737 28.584ZM212.084 54L205.388 37.188L210.212 36.54L214.244 47.124L218.06 36.54H222.992L216.116 54H212.084ZM228.896 48.78C228.896 49.284 229.1 49.74 229.508 50.148C229.916 50.532 230.456 50.724 231.128 50.724C231.776 50.724 232.424 50.58 233.072 50.292C233.744 50.004 234.38 49.572 234.98 48.996V46.332H231.452C230.636 46.332 230 46.584 229.544 47.088C229.112 47.592 228.896 48.156 228.896 48.78ZM231.2 54.432C229.064 54.432 227.48 53.916 226.448 52.884C225.416 51.828 224.9 50.46 224.9 48.78C224.9 46.98 225.512 45.6 226.736 44.64C227.96 43.68 229.556 43.2 231.524 43.2H234.944C234.92 42.312 234.656 41.628 234.152 41.148C233.672 40.644 233 40.392 232.136 40.392C231.32 40.392 230.432 40.512 229.472 40.752C228.512 40.968 227.708 41.232 227.06 41.544L225.8 37.656C226.472 37.2 227.492 36.828 228.86 36.54C230.252 36.228 231.32 36.072 232.064 36.072C234.152 36.072 235.94 36.684 237.428 37.908C238.916 39.108 239.66 40.644 239.66 42.516V54H237.248L236.096 52.524C235.448 53.028 234.68 53.472 233.792 53.856C232.928 54.24 232.064 54.432 231.2 54.432ZM253.542 36.54L254.478 40.284C253.686 40.284 252.762 40.512 251.706 40.968C250.674 41.424 249.654 42.096 248.646 42.984V54H243.966V36.54H246.414L247.962 39.096C248.682 38.472 249.558 37.896 250.59 37.368C251.622 36.816 252.606 36.54 253.542 36.54ZM260.361 48.78C260.361 49.284 260.565 49.74 260.973 50.148C261.381 50.532 261.921 50.724 262.593 50.724C263.241 50.724 263.889 50.58 264.537 50.292C265.209 50.004 265.845 49.572 266.445 48.996V46.332H262.917C262.101 46.332 261.465 46.584 261.009 47.088C260.577 47.592 260.361 48.156 260.361 48.78ZM262.665 54.432C260.529 54.432 258.945 53.916 257.913 52.884C256.881 51.828 256.365 50.46 256.365 48.78C256.365 46.98 256.977 45.6 258.201 44.64C259.425 43.68 261.021 43.2 262.989 43.2H266.409C266.385 42.312 266.121 41.628 265.617 41.148C265.137 40.644 264.465 40.392 263.601 40.392C262.785 40.392 261.897 40.512 260.937 40.752C259.977 40.968 259.173 41.232 258.525 41.544L257.265 37.656C257.937 37.2 258.957 36.828 260.325 36.54C261.717 36.228 262.785 36.072 263.529 36.072C265.617 36.072 267.405 36.684 268.893 37.908C270.381 39.108 271.125 40.644 271.125 42.516V54H268.713L267.561 52.524C266.913 53.028 266.145 53.472 265.257 53.856C264.393 54.24 263.529 54.432 262.665 54.432ZM283.891 39.852C282.259 39.852 281.119 40.428 280.471 41.58C279.847 42.732 279.535 43.92 279.535 45.144C279.535 46.512 279.823 47.736 280.399 48.816C280.975 49.896 282.139 50.436 283.891 50.436C284.443 50.436 285.019 50.316 285.619 50.076C286.243 49.812 286.819 49.512 287.347 49.176V41.112C286.819 40.752 286.243 40.452 285.619 40.212C285.019 39.972 284.443 39.852 283.891 39.852ZM292.063 28.584V54H289.615L288.319 52.308C287.527 52.98 286.591 53.508 285.511 53.892C284.455 54.252 283.495 54.432 282.631 54.432C280.087 54.432 278.131 53.544 276.763 51.768C275.395 49.992 274.711 47.784 274.711 45.144C274.711 42.504 275.431 40.296 276.871 38.52C278.335 36.744 280.327 35.856 282.847 35.856C283.495 35.856 284.227 35.976 285.043 36.216C285.859 36.432 286.627 36.744 287.347 37.152V28.98L292.063 28.584ZM304.8 54.432C302.04 54.432 299.88 53.604 298.32 51.948C296.784 50.268 296.016 48.024 296.016 45.216C296.016 42.432 296.82 40.212 298.428 38.556C300.06 36.9 302.28 36.072 305.088 36.072C307.992 36.072 310.236 36.936 311.82 38.664C313.428 40.368 314.232 42.612 314.232 45.396C314.232 48.18 313.368 50.388 311.64 52.02C309.912 53.628 307.632 54.432 304.8 54.432ZM309.408 45.396C309.408 43.74 309.036 42.444 308.292 41.508C307.572 40.548 306.54 40.068 305.196 40.068C303.828 40.068 302.76 40.488 301.992 41.328C301.224 42.168 300.84 43.452 300.84 45.18C300.84 46.908 301.164 48.216 301.812 49.104C302.484 49.992 303.504 50.436 304.872 50.436C306.216 50.436 307.308 50.04 308.148 49.248C308.988 48.432 309.408 47.148 309.408 45.396Z" fill="white"/>
<g filter="url(#filter0_d)">
<path d="M108.29 72.816H104.834V78H102.512V65.76H109.442L109.802 67.596H104.834V70.998H107.948L108.29 72.816ZM115.904 69.27L116.372 71.142C115.976 71.142 115.514 71.256 114.986 71.484C114.47 71.712 113.96 72.048 113.456 72.492V78H111.116V69.27H112.34L113.114 70.548C113.474 70.236 113.912 69.948 114.428 69.684C114.944 69.408 115.436 69.27 115.904 69.27ZM121.599 78.216C120.219 78.216 119.139 77.802 118.359 76.974C117.591 76.134 117.207 75.012 117.207 73.608C117.207 72.216 117.609 71.106 118.413 70.278C119.229 69.45 120.339 69.036 121.743 69.036C123.195 69.036 124.317 69.468 125.109 70.332C125.913 71.184 126.315 72.306 126.315 73.698C126.315 75.09 125.883 76.194 125.019 77.01C124.155 77.814 123.015 78.216 121.599 78.216ZM123.903 73.698C123.903 72.87 123.717 72.222 123.345 71.754C122.985 71.274 122.469 71.034 121.797 71.034C121.113 71.034 120.579 71.244 120.195 71.664C119.811 72.084 119.619 72.726 119.619 73.59C119.619 74.454 119.781 75.108 120.105 75.552C120.441 75.996 120.951 76.218 121.635 76.218C122.307 76.218 122.853 76.02 123.273 75.624C123.693 75.216 123.903 74.574 123.903 73.698ZM130.11 70.206C130.506 69.81 130.998 69.498 131.586 69.27C132.186 69.042 132.72 68.928 133.188 68.928C134.376 68.928 135.216 69.276 135.708 69.972C136.212 70.668 136.464 71.52 136.464 72.528V78H134.124V72.636C134.124 72.084 133.992 71.664 133.728 71.376C133.464 71.076 133.08 70.926 132.576 70.926C132.24 70.926 131.886 71.016 131.514 71.196C131.154 71.364 130.824 71.562 130.524 71.79V78H128.184V69.27H129.408L130.11 70.206ZM144.026 77.82C143.834 77.976 143.558 78.102 143.198 78.198C142.85 78.306 142.538 78.36 142.262 78.36C141.182 78.36 140.33 78.09 139.706 77.55C139.094 76.998 138.788 76.218 138.788 75.21V71.088H137.618V69.288H138.788V67.218L141.11 66.804V69.288H142.694L143.414 71.088H141.11V74.796C141.11 75.252 141.218 75.63 141.434 75.93C141.65 76.218 141.968 76.362 142.388 76.362C142.544 76.362 142.7 76.344 142.856 76.308C143.012 76.272 143.174 76.212 143.342 76.128L144.026 77.82ZM149.391 73.986H144.693L144.495 72.15H149.211L149.391 73.986ZM155.308 78.216C153.796 78.216 152.602 77.802 151.726 76.974C150.862 76.146 150.43 75.036 150.43 73.644C150.43 72.252 150.82 71.136 151.6 70.296C152.392 69.456 153.466 69.036 154.822 69.036C156.19 69.036 157.192 69.492 157.828 70.404C158.476 71.304 158.8 72.372 158.8 73.608V74.328H152.914C153.022 74.904 153.286 75.366 153.706 75.714C154.126 76.05 154.678 76.218 155.362 76.218C155.758 76.218 156.112 76.17 156.424 76.074C156.748 75.966 157.12 75.816 157.54 75.624L158.224 77.316C157.816 77.628 157.318 77.856 156.73 78C156.154 78.144 155.68 78.216 155.308 78.216ZM156.586 72.762C156.466 72.174 156.25 71.742 155.938 71.466C155.626 71.178 155.236 71.034 154.768 71.034C154.288 71.034 153.886 71.184 153.562 71.484C153.238 71.772 153.028 72.198 152.932 72.762H156.586ZM162.524 70.206C162.92 69.81 163.412 69.498 164 69.27C164.6 69.042 165.134 68.928 165.602 68.928C166.79 68.928 167.63 69.276 168.122 69.972C168.626 70.668 168.878 71.52 168.878 72.528V78H166.538V72.636C166.538 72.084 166.406 71.664 166.142 71.376C165.878 71.076 165.494 70.926 164.99 70.926C164.654 70.926 164.3 71.016 163.928 71.196C163.568 71.364 163.238 71.562 162.938 71.79V78H160.598V69.27H161.822L162.524 70.206ZM175.27 70.926C174.454 70.926 173.884 71.214 173.56 71.79C173.248 72.366 173.092 72.96 173.092 73.572C173.092 74.256 173.236 74.868 173.524 75.408C173.812 75.948 174.394 76.218 175.27 76.218C175.546 76.218 175.834 76.158 176.134 76.038C176.446 75.906 176.734 75.756 176.998 75.588V71.556C176.734 71.376 176.446 71.226 176.134 71.106C175.834 70.986 175.546 70.926 175.27 70.926ZM179.356 65.292V78H178.132L177.484 77.154C177.088 77.49 176.62 77.754 176.08 77.946C175.552 78.126 175.072 78.216 174.64 78.216C173.368 78.216 172.39 77.772 171.706 76.884C171.022 75.996 170.68 74.892 170.68 73.572C170.68 72.252 171.04 71.148 171.76 70.26C172.492 69.372 173.488 68.928 174.748 68.928C175.072 68.928 175.438 68.988 175.846 69.108C176.254 69.216 176.638 69.372 176.998 69.576V65.49L179.356 65.292ZM190.806 78H186.342V65.76H190.878C192.762 65.76 194.16 66.33 195.072 67.47C195.984 68.61 196.44 70.056 196.44 71.808C196.44 73.704 195.948 75.21 194.964 76.326C193.98 77.442 192.594 78 190.806 78ZM190.896 67.74H188.664V76.038H190.77C191.754 76.038 192.54 75.714 193.128 75.066C193.728 74.418 194.028 73.332 194.028 71.808C194.028 70.536 193.776 69.54 193.272 68.82C192.768 68.1 191.976 67.74 190.896 67.74ZM203.12 78.216C201.608 78.216 200.414 77.802 199.538 76.974C198.674 76.146 198.242 75.036 198.242 73.644C198.242 72.252 198.632 71.136 199.412 70.296C200.204 69.456 201.278 69.036 202.634 69.036C204.002 69.036 205.004 69.492 205.64 70.404C206.288 71.304 206.612 72.372 206.612 73.608V74.328H200.726C200.834 74.904 201.098 75.366 201.518 75.714C201.938 76.05 202.49 76.218 203.174 76.218C203.57 76.218 203.924 76.17 204.236 76.074C204.56 75.966 204.932 75.816 205.352 75.624L206.036 77.316C205.628 77.628 205.13 77.856 204.542 78C203.966 78.144 203.492 78.216 203.12 78.216ZM204.398 72.762C204.278 72.174 204.062 71.742 203.75 71.466C203.438 71.178 203.048 71.034 202.58 71.034C202.1 71.034 201.698 71.184 201.374 71.484C201.05 71.772 200.84 72.198 200.744 72.762H204.398ZM210.751 78L207.403 69.594L209.815 69.27L211.831 74.562L213.739 69.27H216.205L212.767 78H210.751ZM221.929 78.216C220.417 78.216 219.223 77.802 218.347 76.974C217.483 76.146 217.051 75.036 217.051 73.644C217.051 72.252 217.441 71.136 218.221 70.296C219.013 69.456 220.087 69.036 221.443 69.036C222.811 69.036 223.813 69.492 224.449 70.404C225.097 71.304 225.421 72.372 225.421 73.608V74.328H219.535C219.643 74.904 219.907 75.366 220.327 75.714C220.747 76.05 221.299 76.218 221.983 76.218C222.379 76.218 222.733 76.17 223.045 76.074C223.369 75.966 223.741 75.816 224.161 75.624L224.845 77.316C224.437 77.628 223.939 77.856 223.351 78C222.775 78.144 222.301 78.216 221.929 78.216ZM223.207 72.762C223.087 72.174 222.871 71.742 222.559 71.466C222.247 71.178 221.857 71.034 221.389 71.034C220.909 71.034 220.507 71.184 220.183 71.484C219.859 71.772 219.649 72.198 219.553 72.762H223.207ZM229.668 65.292V78H227.346V65.49L229.668 65.292ZM236.033 78.216C234.653 78.216 233.573 77.802 232.793 76.974C232.025 76.134 231.641 75.012 231.641 73.608C231.641 72.216 232.043 71.106 232.847 70.278C233.663 69.45 234.773 69.036 236.177 69.036C237.629 69.036 238.751 69.468 239.543 70.332C240.347 71.184 240.749 72.306 240.749 73.698C240.749 75.09 240.317 76.194 239.453 77.01C238.589 77.814 237.449 78.216 236.033 78.216ZM238.337 73.698C238.337 72.87 238.151 72.222 237.779 71.754C237.419 71.274 236.903 71.034 236.231 71.034C235.547 71.034 235.013 71.244 234.629 71.664C234.245 72.084 234.053 72.726 234.053 73.59C234.053 74.454 234.215 75.108 234.539 75.552C234.875 75.996 235.385 76.218 236.069 76.218C236.741 76.218 237.287 76.02 237.707 75.624C238.127 75.216 238.337 74.574 238.337 73.698ZM246.614 76.218C247.418 76.218 247.982 75.93 248.306 75.354C248.63 74.766 248.792 74.172 248.792 73.572C248.792 72.888 248.648 72.276 248.36 71.736C248.072 71.196 247.49 70.926 246.614 70.926C246.362 70.926 246.098 70.974 245.822 71.07C245.558 71.154 245.306 71.274 245.066 71.43V75.714C245.306 75.858 245.558 75.978 245.822 76.074C246.098 76.17 246.362 76.218 246.614 76.218ZM242.744 69.27H243.932L244.436 69.918C244.832 69.618 245.294 69.378 245.822 69.198C246.35 69.018 246.818 68.928 247.226 68.928C248.51 68.928 249.494 69.372 250.178 70.26C250.862 71.148 251.204 72.252 251.204 73.572C251.204 74.892 250.85 75.996 250.142 76.884C249.446 77.772 248.474 78.216 247.226 78.216C246.914 78.216 246.56 78.162 246.164 78.054C245.78 77.946 245.414 77.796 245.066 77.604V81.762L242.744 81.942V69.27ZM257.595 78.216C256.083 78.216 254.889 77.802 254.013 76.974C253.149 76.146 252.717 75.036 252.717 73.644C252.717 72.252 253.107 71.136 253.887 70.296C254.679 69.456 255.753 69.036 257.109 69.036C258.477 69.036 259.479 69.492 260.115 70.404C260.763 71.304 261.087 72.372 261.087 73.608V74.328H255.201C255.309 74.904 255.573 75.366 255.993 75.714C256.413 76.05 256.965 76.218 257.649 76.218C258.045 76.218 258.399 76.17 258.711 76.074C259.035 75.966 259.407 75.816 259.827 75.624L260.511 77.316C260.103 77.628 259.605 77.856 259.017 78C258.441 78.144 257.967 78.216 257.595 78.216ZM258.873 72.762C258.753 72.174 258.537 71.742 258.225 71.466C257.913 71.178 257.523 71.034 257.055 71.034C256.575 71.034 256.173 71.184 255.849 71.484C255.525 71.772 255.315 72.198 255.219 72.762H258.873ZM267.674 69.27L268.142 71.142C267.746 71.142 267.284 71.256 266.756 71.484C266.24 71.712 265.73 72.048 265.226 72.492V78H262.886V69.27H264.11L264.884 70.548C265.244 70.236 265.682 69.948 266.198 69.684C266.714 69.408 267.206 69.27 267.674 69.27Z" fill="white"/>
</g>
<g clip-path="url(#clip0)">
<path opacity="0.1" d="M820 133.535C820.004 138.425 819.331 143.292 818 147.998C816.714 152.534 814.821 156.877 812.374 160.909C812.374 175.517 802.5 188.143 788.168 194.149C782.179 196.634 775.754 197.903 769.269 197.882H549.405C537.653 197.882 526.763 194.715 517.832 189.321C515.276 187.784 512.852 186.039 510.583 184.104C500.656 175.584 494.502 163.81 494.502 150.806C488.931 142.238 485.977 132.236 486 122.02C486 100.63 498.668 82.2369 516.816 74.1163C519.226 73.0385 521.716 72.1494 524.264 71.457C525.165 71.2121 526.076 70.9925 526.997 70.7981C529.451 70.2761 531.94 69.935 534.445 69.7775C535.35 69.7211 536.26 69.6891 537.174 69.6813H537.677C538.687 69.6813 539.688 69.7163 540.684 69.7746L541.011 69.2206C541.412 68.5519 541.822 67.89 542.243 67.2349C543.002 66.0414 543.798 64.8653 544.631 63.7068C545.503 62.4841 546.413 61.2808 547.361 60.097L547.603 59.8054C548.14 59.1367 548.689 58.4758 549.25 57.8226C551.002 55.7835 552.851 53.8056 554.797 51.8889C575.85 31.2798 608.833 18.0128 645.911 18.0128C674.763 18.0128 701.135 26.0459 721.336 39.3188C728.988 34.9936 737.633 32.7241 746.427 32.7319C774.962 32.7319 798.103 56.1664 798.103 85.074C798.099 86.903 798.001 88.7307 797.811 90.5499C804.69 95.4129 810.296 101.857 814.158 109.338C818.02 116.819 820.024 125.118 820 133.535Z" fill="#2478A0"/>
<path opacity="0.2" d="M554.803 51.8761V57.8098H549.256C550.994 55.7726 552.843 53.7947 554.803 51.8761Z" fill="#2478A0"/>
<path opacity="0.2" d="M564.983 50.3715H557.536V57.8098H564.983V50.3715Z" fill="#2478A0"/>
<path opacity="0.2" d="M575.161 50.3715H567.713V57.8098H575.161V50.3715Z" fill="#2478A0"/>
<path opacity="0.2" d="M585.342 50.3715H577.894V57.8098H585.342V50.3715Z" fill="#2478A0"/>
<path opacity="0.2" d="M595.519 50.3715H588.071V57.8098H595.519V50.3715Z" fill="#2478A0"/>
<path opacity="0.2" d="M605.7 50.3715H598.252V57.8098H605.7V50.3715Z" fill="#2478A0"/>
<path d="M615.88 50.3715H608.433V57.8098H615.88V50.3715Z" fill="#2478A0"/>
<path opacity="0.2" d="M626.058 50.3715H618.61V57.8098H626.058V50.3715Z" fill="#2478A0"/>
<path opacity="0.2" d="M636.239 50.3715H628.791V57.8098H636.239V50.3715Z" fill="#2478A0"/>
<path opacity="0.2" d="M646.416 50.3715H638.969V57.8098H646.416V50.3715Z" fill="#2478A0"/>
<path d="M656.597 50.3715H649.149V57.8098H656.597V50.3715Z" fill="#2478A0"/>
<path opacity="0.2" d="M666.777 50.3715H659.33V57.8098H666.777V50.3715Z" fill="#2478A0"/>
<path opacity="0.2" d="M676.955 50.3715H669.507V57.8098H676.955V50.3715Z" fill="#2478A0"/>
<path opacity="0.2" d="M687.136 50.3715H679.688V57.8098H687.136V50.3715Z" fill="#2478A0"/>
<path opacity="0.2" d="M697.316 50.3715H689.868V57.8098H697.316V50.3715Z" fill="#2478A0"/>
<path opacity="0.2" d="M707.494 50.3715H700.046V57.8098H707.494V50.3715Z" fill="#2478A0"/>
<path opacity="0.2" d="M717.675 50.3715H710.227V57.8098H717.675V50.3715Z" fill="#2478A0"/>
<path d="M727.852 50.3715H720.404V57.8098H727.852V50.3715Z" fill="#2478A0"/>
<path d="M738.033 50.3715H730.585V57.8098H738.033V50.3715Z" fill="#2478A0"/>
<path opacity="0.2" d="M748.213 50.3715H740.766V57.8098H748.213V50.3715Z" fill="#2478A0"/>
<path opacity="0.2" d="M758.391 50.3715H750.943V57.8098H758.391V50.3715Z" fill="#2478A0"/>
<path d="M768.572 50.3715H761.124V57.8098H768.572V50.3715Z" fill="#2478A0"/>
<path d="M778.749 50.3715H771.301V57.8098H778.749V50.3715Z" fill="#2478A0"/>
<path d="M544.625 63.7027V67.2309H542.237C542.996 66.0295 543.792 64.8535 544.625 63.7027Z" fill="#2478A0"/>
<path opacity="0.2" d="M554.803 59.7926H547.355V67.2309H554.803V59.7926Z" fill="#2478A0"/>
<path d="M564.983 59.7926H557.536V67.2309H564.983V59.7926Z" fill="#2478A0"/>
<path opacity="0.2" d="M575.161 59.7926H567.713V67.2309H575.161V59.7926Z" fill="#2478A0"/>
<path opacity="0.7" d="M585.342 59.7926H577.894V67.2309H585.342V59.7926Z" fill="#2478A0"/>
<path opacity="0.2" d="M595.519 59.7926H588.071V67.2309H595.519V59.7926Z" fill="#2478A0"/>
<path opacity="0.4" d="M605.7 59.7926H598.252V67.2309H605.7V59.7926Z" fill="#2478A0"/>
<path d="M615.88 59.7926H608.433V67.2309H615.88V59.7926Z" fill="#2478A0"/>
<path opacity="0.4" d="M626.058 59.7926H618.61V67.2309H626.058V59.7926Z" fill="#2478A0"/>
<path opacity="0.2" d="M636.239 59.7926H628.791V67.2309H636.239V59.7926Z" fill="#2478A0"/>
<path opacity="0.4" d="M646.416 59.7926H638.969V67.2309H646.416V59.7926Z" fill="#2478A0"/>
<path d="M656.597 59.7926H649.149V67.2309H656.597V59.7926Z" fill="#2478A0"/>
<path opacity="0.4" d="M666.777 59.7926H659.33V67.2309H666.777V59.7926Z" fill="#2478A0"/>
<path opacity="0.4" d="M676.955 59.7926H669.507V67.2309H676.955V59.7926Z" fill="#2478A0"/>
<path opacity="0.2" d="M687.136 59.7926H679.688V67.2309H687.136V59.7926Z" fill="#2478A0"/>
<path opacity="0.4" d="M697.316 59.7926H689.868V67.2309H697.316V59.7926Z" fill="#2478A0"/>
<path opacity="0.4" d="M707.494 59.7926H700.046V67.2309H707.494V59.7926Z" fill="#2478A0"/>
<path opacity="0.2" d="M717.675 59.7926H710.227V67.2309H717.675V59.7926Z" fill="#2478A0"/>
<path opacity="0.2" d="M727.852 59.7926H720.404V67.2309H727.852V59.7926Z" fill="#2478A0"/>
<path opacity="0.4" d="M738.033 59.7926H730.585V67.2309H738.033V59.7926Z" fill="#2478A0"/>
<path opacity="0.2" d="M748.213 59.7926H740.766V67.2309H748.213V59.7926Z" fill="#2478A0"/>
<path d="M758.391 59.7926H750.943V67.2309H758.391V59.7926Z" fill="#2478A0"/>
<path d="M768.572 59.7926H761.124V67.2309H768.572V59.7926Z" fill="#2478A0"/>
<path d="M778.749 59.7926H771.301V67.2309H778.749V59.7926Z" fill="#2478A0"/>
<path opacity="0.2" d="M524.264 71.4559V76.6548H516.816V74.1151C519.226 73.0373 521.716 72.1482 524.264 71.4559Z" fill="#2478A0"/>
<path opacity="0.2" d="M534.445 69.7764V76.6548H526.997V70.7969L534.445 69.7764Z" fill="#2478A0"/>
<path d="M544.622 69.2165H537.174V76.6548H544.622V69.2165Z" fill="#2478A0"/>
<path opacity="0.7" d="M554.803 69.2165H547.355V76.6548H554.803V69.2165Z" fill="#2478A0"/>
<path d="M564.983 69.2165H557.536V76.6548H564.983V69.2165Z" fill="#2478A0"/>
<path opacity="0.7" d="M575.161 69.2165H567.713V76.6548H575.161V69.2165Z" fill="#2478A0"/>
<path opacity="0.7" d="M585.342 69.2165H577.894V76.6548H585.342V69.2165Z" fill="#2478A0"/>
<path opacity="0.2" d="M595.519 69.2165H588.071V76.6548H595.519V69.2165Z" fill="#2478A0"/>
<path opacity="0.4" d="M605.7 69.2165H598.252V76.6548H605.7V69.2165Z" fill="#2478A0"/>
<path opacity="0.4" d="M615.88 69.2165H608.433V76.6548H615.88V69.2165Z" fill="#2478A0"/>
<path d="M626.058 69.2165H618.61V76.6548H626.058V69.2165Z" fill="#2478A0"/>
<path opacity="0.2" d="M636.239 69.2165H628.791V76.6548H636.239V69.2165Z" fill="#2478A0"/>
<path opacity="0.4" d="M646.416 69.2165H638.969V76.6548H646.416V69.2165Z" fill="#2478A0"/>
<path d="M656.597 69.2165H649.149V76.6548H656.597V69.2165Z" fill="#2478A0"/>
<path opacity="0.2" d="M666.777 69.2165H659.33V76.6548H666.777V69.2165Z" fill="#2478A0"/>
<path opacity="0.4" d="M676.955 69.2165H669.507V76.6548H676.955V69.2165Z" fill="#2478A0"/>
<path opacity="0.2" d="M687.136 69.2165H679.688V76.6548H687.136V69.2165Z" fill="#2478A0"/>
<path d="M697.316 69.2165H689.868V76.6548H697.316V69.2165Z" fill="#2478A0"/>
<path opacity="0.2" d="M707.494 69.2165H700.046V76.6548H707.494V69.2165Z" fill="#2478A0"/>
<path opacity="0.7" d="M717.675 69.2165H710.227V76.6548H717.675V69.2165Z" fill="#2478A0"/>
<path opacity="0.7" d="M727.852 69.2165H720.404V76.6548H727.852V69.2165Z" fill="#2478A0"/>
<path opacity="0.4" d="M738.033 69.2165H730.585V76.6548H738.033V69.2165Z" fill="#2478A0"/>
<path opacity="0.2" d="M748.213 69.2165H740.766V76.6548H748.213V69.2165Z" fill="#2478A0"/>
<path d="M758.391 69.2165H750.943V76.6548H758.391V69.2165Z" fill="#2478A0"/>
<path d="M768.572 69.2165H761.124V76.6548H768.572V69.2165Z" fill="#2478A0"/>
<path d="M778.749 69.2165H771.301V76.6548H778.749V69.2165Z" fill="#2478A0"/>
<path opacity="0.2" d="M524.264 78.6376H516.816V86.0759H524.264V78.6376Z" fill="#2478A0"/>
<path opacity="0.2" d="M534.445 78.6376H526.997V86.0759H534.445V78.6376Z" fill="#2478A0"/>
<path opacity="0.2" d="M544.622 78.6376H537.174V86.0759H544.622V78.6376Z" fill="#2478A0"/>
<path opacity="0.2" d="M554.803 78.6376H547.355V86.0759H554.803V78.6376Z" fill="#2478A0"/>
<path d="M564.983 78.6376H557.536V86.0759H564.983V78.6376Z" fill="#2478A0"/>
<path opacity="0.7" d="M575.161 78.6376H567.713V86.0759H575.161V78.6376Z" fill="#2478A0"/>
<path opacity="0.7" d="M585.342 78.6376H577.894V86.0759H585.342V78.6376Z" fill="#2478A0"/>
<path opacity="0.2" d="M595.519 78.6376H588.071V86.0759H595.519V78.6376Z" fill="#2478A0"/>
<path opacity="0.2" d="M605.7 78.6376H598.252V86.0759H605.7V78.6376Z" fill="#2478A0"/>
<path opacity="0.4" d="M615.88 78.6376H608.433V86.0759H615.88V78.6376Z" fill="#2478A0"/>
<path opacity="0.4" d="M626.058 78.6376H618.61V86.0759H626.058V78.6376Z" fill="#2478A0"/>
<path d="M636.239 78.6376H628.791V86.0759H636.239V78.6376Z" fill="#2478A0"/>
<path opacity="0.2" d="M646.416 78.6376H638.969V86.0759H646.416V78.6376Z" fill="#2478A0"/>
<path opacity="0.4" d="M656.597 78.6376H649.149V86.0759H656.597V78.6376Z" fill="#2478A0"/>
<path opacity="0.4" d="M666.777 78.6376H659.33V86.0759H666.777V78.6376Z" fill="#2478A0"/>
<path opacity="0.4" d="M676.955 78.6376H669.507V86.0759H676.955V78.6376Z" fill="#2478A0"/>
<path opacity="0.4" d="M687.136 78.6376H679.688V86.0759H687.136V78.6376Z" fill="#2478A0"/>
<path opacity="0.2" d="M697.316 78.6376H689.868V86.0759H697.316V78.6376Z" fill="#2478A0"/>
<path opacity="0.2" d="M707.494 78.6376H700.046V86.0759H707.494V78.6376Z" fill="#2478A0"/>
<path opacity="0.2" d="M717.675 78.6376H710.227V86.0759H717.675V78.6376Z" fill="#2478A0"/>
<path opacity="0.2" d="M727.852 78.6376H720.404V86.0759H727.852V78.6376Z" fill="#2478A0"/>
<path opacity="0.7" d="M738.033 78.6376H730.585V86.0759H738.033V78.6376Z" fill="#2478A0"/>
<path opacity="0.7" d="M748.213 78.6376H740.766V86.0759H748.213V78.6376Z" fill="#2478A0"/>
<path opacity="0.4" d="M758.391 78.6376H750.943V86.0759H758.391V78.6376Z" fill="#2478A0"/>
<path opacity="0.2" d="M768.572 78.6376H761.124V86.0759H768.572V78.6376Z" fill="#2478A0"/>
<path d="M778.749 78.6376H771.301V86.0759H778.749V78.6376Z" fill="#2478A0"/>
<path opacity="0.2" d="M524.264 88.0615H516.816V95.4998H524.264V88.0615Z" fill="#2478A0"/>
<path opacity="0.2" d="M534.445 88.0615H526.997V95.4998H534.445V88.0615Z" fill="#2478A0"/>
<path opacity="0.4" d="M544.622 88.0615H537.174V95.4998H544.622V88.0615Z" fill="#2478A0"/>
<path opacity="0.2" d="M554.803 88.0615H547.355V95.4998H554.803V88.0615Z" fill="#2478A0"/>
<path opacity="0.2" d="M564.983 88.0615H557.536V95.4998H564.983V88.0615Z" fill="#2478A0"/>
<path opacity="0.7" d="M575.161 88.0615H567.713V95.4998H575.161V88.0615Z" fill="#2478A0"/>
<path opacity="0.7" d="M585.342 88.0615H577.894V95.4998H585.342V88.0615Z" fill="#2478A0"/>
<path opacity="0.2" d="M595.519 88.0615H588.071V95.4998H595.519V88.0615Z" fill="#2478A0"/>
<path opacity="0.2" d="M605.7 88.0615H598.252V95.4998H605.7V88.0615Z" fill="#2478A0"/>
<path opacity="0.4" d="M615.88 88.0615H608.433V95.4998H615.88V88.0615Z" fill="#2478A0"/>
<path d="M626.058 88.0615H618.61V95.4998H626.058V88.0615Z" fill="#2478A0"/>
<path opacity="0.2" d="M636.239 88.0615H628.791V95.4998H636.239V88.0615Z" fill="#2478A0"/>
<path d="M646.416 88.0615H638.969V95.4998H646.416V88.0615Z" fill="#2478A0"/>
<path d="M656.597 88.0615H649.149V95.4998H656.597V88.0615Z" fill="#2478A0"/>
<path d="M666.777 88.0615H659.33V95.4998H666.777V88.0615Z" fill="#2478A0"/>
<path opacity="0.2" d="M676.955 88.0615H669.507V95.4998H676.955V88.0615Z" fill="#2478A0"/>
<path d="M687.136 88.0615H679.688V95.4998H687.136V88.0615Z" fill="#2478A0"/>
<path opacity="0.2" d="M697.316 88.0615H689.868V95.4998H697.316V88.0615Z" fill="#2478A0"/>
<path opacity="0.2" d="M707.494 88.0615H700.046V95.4998H707.494V88.0615Z" fill="#2478A0"/>
<path opacity="0.2" d="M717.675 88.0615H710.227V95.4998H717.675V88.0615Z" fill="#2478A0"/>
<path opacity="0.2" d="M727.852 88.0615H720.404V95.4998H727.852V88.0615Z" fill="#2478A0"/>
<path opacity="0.2" d="M738.033 88.0615H730.585V95.4998H738.033V88.0615Z" fill="#2478A0"/>
<path opacity="0.7" d="M748.213 88.0615H740.766V95.4998H748.213V88.0615Z" fill="#2478A0"/>
<path opacity="0.2" d="M758.391 88.0615H750.943V95.4998H758.391V88.0615Z" fill="#2478A0"/>
<path opacity="0.2" d="M768.572 88.0615H761.124V95.4998H768.572V88.0615Z" fill="#2478A0"/>
<path d="M778.749 88.0615H771.301V95.4998H778.749V88.0615Z" fill="#2478A0"/>
<path opacity="0.2" d="M524.264 97.4826H516.816V104.921H524.264V97.4826Z" fill="#2478A0"/>
<path opacity="0.2" d="M534.445 97.4826H526.997V104.921H534.445V97.4826Z" fill="#2478A0"/>
<path opacity="0.2" d="M544.622 97.4826H537.174V104.921H544.622V97.4826Z" fill="#2478A0"/>
<path opacity="0.4" d="M554.803 97.4826H547.355V104.921H554.803V97.4826Z" fill="#2478A0"/>
<path opacity="0.2" d="M564.983 97.4826H557.536V104.921H564.983V97.4826Z" fill="#2478A0"/>
<path opacity="0.2" d="M575.161 97.4826H567.713V104.921H575.161V97.4826Z" fill="#2478A0"/>
<path opacity="0.7" d="M585.342 97.4826H577.894V104.921H585.342V97.4826Z" fill="#2478A0"/>
<path opacity="0.2" d="M595.519 97.4826H588.071V104.921H595.519V97.4826Z" fill="#2478A0"/>
<path opacity="0.2" d="M605.7 97.4826H598.252V104.921H605.7V97.4826Z" fill="#2478A0"/>
<path opacity="0.2" d="M615.88 97.4826H608.433V104.921H615.88V97.4826Z" fill="#2478A0"/>
<path d="M626.058 97.4826H618.61V104.921H626.058V97.4826Z" fill="#2478A0"/>
<path opacity="0.2" d="M636.239 97.4826H628.791V104.921H636.239V97.4826Z" fill="#2478A0"/>
<path d="M646.416 97.4826H638.969V104.921H646.416V97.4826Z" fill="#2478A0"/>
<path d="M656.597 97.4826H649.149V104.921H656.597V97.4826Z" fill="#2478A0"/>
<path opacity="0.2" d="M666.777 97.4826H659.33V104.921H666.777V97.4826Z" fill="#2478A0"/>
<path opacity="0.2" d="M676.955 97.4826H669.507V104.921H676.955V97.4826Z" fill="#2478A0"/>
<path opacity="0.2" d="M687.136 97.4826H679.688V104.921H687.136V97.4826Z" fill="#2478A0"/>
<path opacity="0.2" d="M697.316 97.4826H689.868V104.921H697.316V97.4826Z" fill="#2478A0"/>
<path opacity="0.2" d="M707.494 97.4826H700.046V104.921H707.494V97.4826Z" fill="#2478A0"/>
<path opacity="0.2" d="M717.675 97.4826H710.227V104.921H717.675V97.4826Z" fill="#2478A0"/>
<path opacity="0.2" d="M727.852 97.4826H720.404V104.921H727.852V97.4826Z" fill="#2478A0"/>
<path opacity="0.2" d="M738.033 97.4826H730.585V104.921H738.033V97.4826Z" fill="#2478A0"/>
<path opacity="0.2" d="M748.213 97.4826H740.766V104.921H748.213V97.4826Z" fill="#2478A0"/>
<path opacity="0.2" d="M758.391 97.4826H750.943V104.921H758.391V97.4826Z" fill="#2478A0"/>
<path opacity="0.4" d="M768.572 97.4826H761.124V104.921H768.572V97.4826Z" fill="#2478A0"/>
<path d="M778.749 97.4826H771.301V104.921H778.749V97.4826Z" fill="#2478A0"/>
<path opacity="0.7" d="M524.264 106.907H516.816V114.345H524.264V106.907Z" fill="#2478A0"/>
<path opacity="0.7" d="M534.445 106.907H526.997V114.345H534.445V106.907Z" fill="#2478A0"/>
<path opacity="0.7" d="M544.622 106.907H537.174V114.345H544.622V106.907Z" fill="#2478A0"/>
<path opacity="0.7" d="M554.803 106.907H547.355V114.345H554.803V106.907Z" fill="#2478A0"/>
<path opacity="0.7" d="M564.983 106.907H557.536V114.345H564.983V106.907Z" fill="#2478A0"/>
<path opacity="0.2" d="M575.161 106.907H567.713V114.345H575.161V106.907Z" fill="#2478A0"/>
<path opacity="0.2" d="M585.342 106.907H577.894V114.345H585.342V106.907Z" fill="#2478A0"/>
<path opacity="0.2" d="M595.519 106.907H588.071V114.345H595.519V106.907Z" fill="#2478A0"/>
<path opacity="0.2" d="M605.7 106.907H598.252V114.345H605.7V106.907Z" fill="#2478A0"/>
<path opacity="0.2" d="M615.88 106.907H608.433V114.345H615.88V106.907Z" fill="#2478A0"/>
<path opacity="0.2" d="M626.058 106.907H618.61V114.345H626.058V106.907Z" fill="#2478A0"/>
<path d="M636.239 106.907H628.791V114.345H636.239V106.907Z" fill="#2478A0"/>
<path opacity="0.2" d="M646.416 106.907H638.969V114.345H646.416V106.907Z" fill="#2478A0"/>
<path opacity="0.2" d="M656.597 106.907H649.149V114.345H656.597V106.907Z" fill="#2478A0"/>
<path opacity="0.2" d="M666.777 106.907H659.33V114.345H666.777V106.907Z" fill="#2478A0"/>
<path d="M676.955 106.907H669.507V114.345H676.955V106.907Z" fill="#2478A0"/>
<path opacity="0.2" d="M687.136 106.907H679.688V114.345H687.136V106.907Z" fill="#2478A0"/>
<path opacity="0.2" d="M697.316 106.907H689.868V114.345H697.316V106.907Z" fill="#2478A0"/>
<path opacity="0.2" d="M707.494 106.907H700.046V114.345H707.494V106.907Z" fill="#2478A0"/>
<path opacity="0.2" d="M717.675 106.907H710.227V114.345H717.675V106.907Z" fill="#2478A0"/>
<path opacity="0.2" d="M727.852 106.907H720.404V114.345H727.852V106.907Z" fill="#2478A0"/>
<path opacity="0.2" d="M738.033 106.907H730.585V114.345H738.033V106.907Z" fill="#2478A0"/>
<path opacity="0.2" d="M748.213 106.907H740.766V114.345H748.213V106.907Z" fill="#2478A0"/>
<path opacity="0.2" d="M758.391 106.907H750.943V114.345H758.391V106.907Z" fill="#2478A0"/>
<path opacity="0.2" d="M768.572 106.907H761.124V114.345H768.572V106.907Z" fill="#2478A0"/>
<path d="M778.749 106.907H771.301V114.345H778.749V106.907Z" fill="#2478A0"/>
<path d="M700.449 134.272C706.072 134.272 710.63 129.719 710.63 124.104C710.63 118.489 706.072 113.937 700.449 113.937C694.826 113.937 690.268 118.489 690.268 124.104C690.268 129.719 694.826 134.272 700.449 134.272Z" fill="#767D9F"/>
<path d="M699.921 111.17C700.937 115.598 701.799 120.059 702.507 124.553C702.72 125.889 702.91 127.297 702.426 128.56C702.02 129.612 701.194 130.434 700.545 131.356C699.897 132.277 699.407 133.458 699.801 134.514C700.195 135.569 701.345 136.147 702.443 136.444C705.585 137.29 708.933 136.674 712.06 135.759C713.476 135.395 714.833 134.833 716.092 134.091C717.418 133.251 718.504 132.085 719.502 130.883C724.06 125.364 727.044 118.739 729.852 112.155C728.047 112.319 726.23 112.052 724.549 111.376C722.868 110.699 721.372 109.633 720.185 108.265C719.035 106.915 718.191 105.035 718.839 103.384C716.939 104.425 714.682 104.495 712.635 105.207C711.366 105.691 710.144 106.291 708.986 107C707.588 107.807 706.199 108.629 704.817 109.467C703.237 110.417 701.757 111.263 699.921 111.17Z" fill="#FFB9B9"/>
<path d="M699.921 111.17C700.937 115.598 701.799 120.059 702.507 124.553C702.72 125.889 702.91 127.297 702.426 128.56C702.02 129.612 701.194 130.434 700.545 131.356C699.897 132.277 699.407 133.458 699.801 134.514C700.195 135.569 701.345 136.147 702.443 136.444C705.585 137.29 708.933 136.674 712.06 135.759C713.476 135.395 714.833 134.833 716.092 134.091C717.418 133.251 718.504 132.085 719.502 130.883C724.06 125.364 727.044 118.739 729.852 112.155C728.047 112.319 726.23 112.052 724.549 111.376C722.868 110.699 721.372 109.633 720.185 108.265C719.035 106.915 718.191 105.035 718.839 103.384C716.939 104.425 714.682 104.495 712.635 105.207C711.366 105.691 710.144 106.291 708.986 107C707.588 107.807 706.199 108.629 704.817 109.467C703.237 110.417 701.757 111.263 699.921 111.17Z" fill="black" fill-opacity="0.1"/>
<path d="M721.213 118.803C719.429 122.27 717.108 125.603 713.794 127.667C710.481 129.732 706.02 130.292 702.7 128.25C701.065 127.253 699.827 125.737 698.399 124.46C696.972 123.183 695.188 122.089 693.27 122.255C691.156 122.439 689.501 124.087 688.085 125.664C685.936 128.061 683.86 130.56 682.339 133.397C679.419 138.849 678.727 145.223 678.856 151.405C678.984 157.587 679.881 163.736 679.901 169.918C679.93 177.522 678.64 185.065 677.335 192.556C689.334 191.081 701.348 194.306 713.374 195.527C721.07 196.318 728.824 196.3 736.561 196.28C737.922 196.28 739.37 196.245 740.503 195.492C741.195 194.988 741.755 194.324 742.135 193.556C743.203 191.588 743.633 189.343 743.93 187.124C744.687 181.52 744.71 175.846 744.73 170.189C744.783 156.484 744.832 142.73 743.09 129.134C742.66 125.789 742.111 122.428 740.827 119.299C739.542 116.17 737.446 113.292 734.515 111.616C732.632 110.537 728.267 108.659 726.048 109.747C723.558 110.96 722.407 116.482 721.213 118.803Z" fill="#767D9F"/>
<path d="M722.101 157.502C721.648 149.046 719.806 140.022 723.727 132.516C724.69 130.673 721.233 128.373 722.302 126.588C723.606 124.413 724.595 122.064 725.239 119.611C725.461 118.768 725.639 117.876 725.429 117.03C725.041 115.488 723.514 114.569 722.217 113.63C720.787 112.592 720.051 109.429 719.59 107.717C719.128 106.006 723.26 108.067 724.921 107.458C727.227 106.615 730.159 107.146 732.459 108C733.744 108.472 735.139 108.513 736.509 108.548C739.168 108.618 741.837 108.685 744.476 108.359C745.662 108.21 746.85 107.985 748.041 108.052C751.08 108.225 753.723 110.301 755.521 112.756C757.32 115.211 758.464 118.071 759.938 120.731C761.168 122.947 762.633 125.04 763.681 127.347C764.61 129.388 765.197 131.58 765.778 133.761L767.275 139.357C767.537 140.157 767.662 140.996 767.643 141.838C767.567 142.733 767.17 143.567 766.767 144.363C765.244 147.314 763.417 150.098 761.316 152.671C758.166 156.528 754.342 160.007 752.47 164.625C751.74 166.424 751.334 168.337 750.964 170.244C749.469 177.871 748.406 185.576 747.781 193.323C744.37 191.746 740.794 190.552 737.119 189.763C735.287 189.371 733.435 189.079 731.572 188.888C729.94 188.719 727.835 189.04 726.281 188.596C723.683 187.859 723.397 183.47 723.003 181.173C722.372 177.513 722.247 173.79 722.223 170.093C722.194 165.888 722.325 161.692 722.101 157.502Z" fill="#02385F"/>
<path d="M665.037 141.689C666.267 148.687 667.621 155.706 670.293 162.281C670.225 162.345 670.158 162.404 670.091 162.462C669.855 162.663 669.609 162.853 669.353 163.045C668.754 163.465 668.097 163.821 667.601 164.369C667.413 164.579 667.264 164.821 667.163 165.083C667.071 165.288 667.024 165.51 667.024 165.735C667.024 165.959 667.071 166.182 667.163 166.387C665.77 167.002 664.153 166.812 662.591 166.754C661.245 166.704 659.94 166.754 658.86 167.492C657.359 168.524 656.906 170.507 656.664 172.309C656.574 172.966 656.498 173.624 656.433 174.283C656.371 174.895 656.32 175.509 656.282 176.125C656.149 178.164 656.131 180.208 656.226 182.249C656.242 182.622 656.262 182.995 656.287 183.368C651.517 183.255 647.17 180.77 643.056 178.356C642.116 177.805 641.146 177.225 640.536 176.315C639.974 175.421 639.736 174.362 639.862 173.315C639.862 173.166 639.888 173.023 639.909 172.871C640.039 172.006 640.263 171.158 640.577 170.34C641.864 166.86 643.761 163.636 646.18 160.82C647.225 159.601 648.402 158.409 648.889 156.878C649.102 156.21 649.181 155.502 649.397 154.837C650.366 151.956 653.864 150.594 655.061 147.798C655.353 147.13 655.487 146.399 655.849 145.757C656.175 145.224 656.596 144.755 657.09 144.372C657.303 144.194 657.525 144.022 657.744 143.85C659.796 142.244 661.772 140.548 663.674 138.762C664.028 138.43 664.379 138.093 664.725 137.753C664.679 139.073 664.784 140.394 665.037 141.689Z" fill="#02385F"/>
<path d="M694.458 120.993C694.038 121.436 693.582 121.853 693.135 122.267L693.016 122.375L692.543 122.812C691.684 123.552 690.941 124.416 690.338 125.375L690.289 125.457C688.8 128.119 689.352 131.397 689.766 134.42C690.28 138.188 690.512 141.99 690.458 145.792C690.382 151.041 689.763 156.254 689.752 161.497C689.752 162.686 689.778 163.873 689.83 165.063C689.915 166.996 690.061 168.926 690.236 170.857C690.426 172.973 690.654 175.087 690.867 177.201C691.036 178.837 691.197 180.47 691.331 182.103C691.398 182.948 691.463 183.791 691.515 184.637C691.576 185.628 691.626 186.622 691.655 187.614C691.676 188.244 691.687 188.871 691.687 189.5C691.687 189.859 691.687 190.215 691.687 190.57C691.687 191.253 691.669 191.933 691.632 192.612C691.593 193.484 691.534 194.359 691.454 195.236C691.363 196.189 691.203 197.23 690.531 197.901C690.49 197.942 690.447 197.98 690.403 198.017L689.457 197.901C682.936 197.121 676.353 197.004 669.808 197.551C669.951 196.565 670.082 195.583 670.211 194.594C670.269 194.128 670.328 193.658 670.383 193.189C670.447 192.652 670.509 192.116 670.567 191.579C670.634 190.996 670.696 190.413 670.754 189.83C670.906 188.327 671.039 186.824 671.154 185.319C671.323 183.124 671.452 180.926 671.539 178.723C671.582 177.672 671.615 176.619 671.639 175.566C671.672 174.259 671.687 172.952 671.685 171.644C671.685 170.373 671.675 169.099 671.653 167.824C671.653 167.404 671.636 166.984 671.601 166.567C671.575 166.192 671.524 165.819 671.446 165.451C671.229 164.602 670.936 163.774 670.57 162.978C670.506 162.826 670.444 162.686 670.383 162.526C670.348 162.447 670.316 162.366 670.284 162.287C671.966 160.791 673.163 158.788 674.313 156.817C676.179 153.641 678.088 150.326 678.4 146.658C678.713 142.99 676.888 138.87 673.379 137.75C672.424 137.459 671.414 137.377 670.43 137.205C669.501 137.042 667.566 136.671 666.491 136.007C665.907 136.605 665.324 137.193 664.74 137.771C664.775 136.89 664.991 136.025 665.373 135.231L665.788 135.251C665.754 135.158 665.738 135.059 665.741 134.96C665.741 134.648 665.957 134.295 666.418 133.904C667.794 132.738 669.957 132.478 670.824 130.901C671.186 130.245 671.247 129.463 671.539 128.775C672.377 126.813 674.783 126.09 676.231 124.521C677.679 122.952 678.041 120.731 679.212 118.981C680.087 117.703 681.3 116.694 682.715 116.065C682.832 116.01 682.952 115.954 683.072 115.905C685.495 114.87 688.374 114.634 690.884 114.639C691.86 114.639 694.388 114.669 695.626 115.161C695.827 115.233 696.01 115.345 696.166 115.491C697.486 116.925 695.433 119.955 694.458 120.993Z" fill="#02385F"/>
<path d="M665.472 135.027C667.728 134.349 670.096 134.125 672.438 134.369C674.781 134.613 677.052 135.319 679.119 136.447C681.221 137.613 683.107 139.24 684.263 141.34C686 144.489 685.924 148.285 685.801 151.88C685.74 153.679 685.661 155.543 684.867 157.158C683.948 159.027 682.213 160.31 680.444 161.36C679.336 162.066 678.121 162.591 676.847 162.914C674.885 163.34 672.847 162.978 670.871 162.622C668.722 162.226 666.415 161.747 664.924 160.15C664.048 159.222 663.569 158.018 663.096 156.84C662.417 155.139 661.735 153.44 661.052 151.743C659.87 148.795 659.47 146.343 661.032 143.471C661.741 142.162 662.608 140.937 663.309 139.619C663.659 138.949 664.915 135.199 665.472 135.027Z" fill="#02385F"/>
<path d="M788.177 185.433V194.151C782.188 196.636 775.763 197.905 769.278 197.883H690.54C690.499 197.924 690.455 197.962 690.412 198L689.466 197.883H549.405C537.653 197.883 526.763 194.717 517.832 189.322V176.012L585.193 168.247H585.245L624.473 171.565L634.624 172.44L639.897 172.886L650.81 173.81L656.425 174.286L664.6 174.98L665.75 175.076L671.642 175.574L679.635 176.23L690.876 177.181L709.614 178.77L722.796 179.887L744.441 181.721L748.558 182.068L749.002 182.106L749.387 182.138L754.823 182.599L760.791 183.106L761.483 183.164L788.177 185.433Z" fill="#504F60"/>
<path d="M709.056 185.112L624.639 170.722L621.366 187.252L660.062 191.88L671.977 193.37L704.752 186.923L709.056 185.112Z" fill="#9C9CA1"/>
<path d="M665.359 192.542L707.652 184.602C707.863 184.561 708.081 184.568 708.29 184.622C708.498 184.675 708.693 184.774 708.858 184.912C709.024 185.049 709.157 185.222 709.249 185.416C709.34 185.611 709.387 185.824 709.386 186.039C709.387 186.381 709.268 186.711 709.05 186.974C708.831 187.237 708.528 187.415 708.192 187.477L666.888 195.201L665.359 192.542Z" fill="#9C9CA1"/>
<path d="M683.705 167.573C685.022 167.451 686.356 167.244 687.542 166.661C689.001 165.935 690.137 164.684 691.489 163.762C694.461 161.721 698.437 161.447 701.845 162.619C705.252 163.791 708.095 166.302 710.087 169.299C711.409 171.297 712.402 173.845 711.468 176.05C711.147 176.723 710.743 177.354 710.265 177.927L707.83 181.106C707.367 181.774 706.811 182.372 706.177 182.881C705.266 183.543 704.134 183.815 703.018 183.978C700.055 184.409 697.039 184.164 694.052 184.363C688.923 184.704 683.913 186.354 678.771 186.299C675.817 186.267 672.9 185.672 670.012 185.077L657.233 182.453C655.009 181.998 652.495 181.333 651.447 179.318C650.977 178.411 650.889 177.362 650.834 176.341C650.682 173.53 650.834 170.405 652.784 168.378C654.617 166.477 657.517 165.876 659.706 164.471C662.386 162.748 663.271 163.305 666.097 164.599C671.611 167.093 677.677 168.118 683.705 167.573Z" fill="#FFB9B9"/>
<path opacity="0.05" d="M683.58 167.397C684.896 167.274 686.231 167.067 687.416 166.484C688.876 165.758 690.012 164.507 691.363 163.586C694.335 161.545 698.312 161.271 701.719 162.443C705.126 163.615 707.97 166.126 709.961 169.123C711.284 171.12 712.276 173.669 711.342 175.873C711.021 176.547 710.617 177.178 710.139 177.751L707.704 180.929C707.242 181.597 706.685 182.195 706.052 182.705C705.141 183.367 704.008 183.638 702.893 183.801C699.929 184.233 696.913 183.988 693.927 184.186C688.797 184.527 683.787 186.178 678.646 186.122C675.691 186.09 672.774 185.495 669.887 184.901L657.108 182.276C654.883 181.822 652.369 181.157 651.321 179.142C650.851 178.235 650.764 177.185 650.708 176.165C650.556 173.354 650.708 170.228 652.658 168.202C654.492 166.301 657.391 165.7 659.581 164.294C662.261 162.571 663.146 163.128 665.972 164.423C671.485 166.917 677.552 167.941 683.58 167.397Z" fill="black"/>
<path d="M735.023 163.576C731.437 164.961 727.832 166.352 724.077 167.177C717.783 168.562 711.196 168.343 704.951 169.926C701.652 170.766 698.373 172.119 694.984 171.845C693.468 171.723 692.006 171.262 690.531 170.912C682.248 168.871 672.833 169.533 666.106 174.781C663.805 176.574 661.922 178.811 660.214 181.196C659.849 181.711 659.602 182.301 659.491 182.922C659.38 183.544 659.408 184.182 659.573 184.792C659.738 185.401 660.035 185.967 660.445 186.448C660.854 186.93 661.364 187.315 661.94 187.576C664.556 188.777 667.358 189.524 670.226 189.783C674.059 190.121 677.91 189.579 681.723 189.037C687.381 188.235 693.042 187.43 698.686 186.529C700.712 186.205 702.738 185.87 704.776 185.614C719.441 183.762 734.372 186.013 749.075 184.468C750.561 184.31 752.073 184.106 753.425 183.473C756.847 181.87 758.54 177.642 757.833 173.927C757.127 170.212 754.4 167.124 751.118 165.229C748.368 163.634 745.402 162.99 742.339 162.313C739.495 161.651 737.761 162.526 735.023 163.576Z" fill="#FFB9B9"/>
<path opacity="0.1" d="M766.475 141.369C768.093 143.486 768.437 146.326 768.262 148.976C768.087 151.627 767.456 154.248 767.363 156.91C767.234 160.561 768.116 164.2 767.967 167.839C767.862 170.384 767.258 172.88 766.543 175.324C765.699 178.207 764.478 181.307 761.813 182.692C758.274 184.532 750.853 183.497 747.13 184.937C747.469 182.829 750.715 179.776 751.054 177.668C751.288 176.21 751.524 174.711 751.273 173.25C750.952 171.387 749.857 169.734 748.558 168.358C746.491 166.168 743.793 164.52 740.83 163.984C737.866 163.447 730.611 163.888 728.241 165.757C727.949 163.826 733.379 161.966 735.288 161.549C736.24 161.336 737.332 161.456 738.094 160.852C739.554 159.709 738.494 157.432 738.564 155.604C738.62 154.146 739.472 152.81 739.644 151.353C739.936 149.02 738.412 146.643 739.011 144.355C739.233 143.509 739.726 142.765 740.068 141.961C741.107 139.497 740.652 136.686 740.097 134.068C739.752 132.423 739.417 130.569 740.333 129.166C741.183 127.857 743.595 132.519 745.139 132.303C750.24 131.589 754.855 127.813 758.975 130.904C761.074 132.478 761.349 134.111 762.186 136.359C763.001 138.5 765.112 139.596 766.475 141.369Z" fill="black"/>
<path d="M767.351 141.369C768.969 143.486 769.313 146.326 769.138 148.976C768.963 151.627 768.332 154.248 768.239 156.91C768.11 160.561 768.992 164.2 768.843 167.839C768.738 170.384 768.134 172.88 767.418 175.324C766.575 178.207 765.354 181.307 762.689 182.692C759.15 184.532 751.729 183.497 748.006 184.937C748.345 182.829 751.591 179.776 751.93 177.668C752.164 176.21 752.4 174.711 752.149 173.25C751.828 171.387 750.733 169.734 749.434 168.358C747.367 166.168 744.669 164.52 741.706 163.984C738.742 163.447 731.487 163.888 729.116 165.757C728.824 163.826 734.255 161.966 736.164 161.549C737.116 161.336 738.208 161.456 738.97 160.852C740.43 159.709 739.37 157.432 739.44 155.604C739.495 154.146 740.348 152.81 740.52 151.353C740.812 149.02 739.288 146.643 739.887 144.355C740.109 143.509 740.602 142.765 740.944 141.961C741.983 139.497 741.528 136.686 740.973 134.068C740.628 132.423 740.293 130.569 741.209 129.166C742.059 127.857 743.72 127.361 745.265 127.142C750.436 126.444 755.675 127.794 759.862 130.904C761.962 132.478 762.236 134.111 763.074 136.359C763.877 138.5 765.988 139.596 767.351 141.369Z" fill="#02385F"/>
<path d="M574.171 127.554L590.045 186.144C590.24 186.862 590.649 187.504 591.218 187.983C591.787 188.463 592.489 188.758 593.23 188.83L664.678 195.685C665.261 195.741 665.848 195.657 666.391 195.44C666.934 195.222 667.417 194.878 667.8 194.436C668.182 193.994 668.453 193.467 668.59 192.899C668.726 192.331 668.725 191.738 668.585 191.171L651.202 120.497C650.995 119.657 650.496 118.918 649.795 118.41C649.094 117.902 648.235 117.659 647.371 117.724L577.421 122.949C576.884 122.991 576.363 123.151 575.894 123.417C575.426 123.683 575.022 124.049 574.712 124.488C574.402 124.928 574.192 125.431 574.099 125.961C574.005 126.49 574.03 127.034 574.171 127.554Z" fill="#9C9CA1"/>
<path d="M715.803 138.987C720.141 138.987 723.657 135.429 723.657 131.041C723.657 126.653 720.141 123.095 715.803 123.095C711.466 123.095 707.949 126.653 707.949 131.041C707.949 135.429 711.466 138.987 715.803 138.987Z" fill="white"/>
<path d="M722.252 116.546C722.252 116.546 723.908 121.462 719.023 123.53L718.399 124.62L721.458 127.635C721.458 127.635 725.23 120.763 724.822 118.322C724.822 118.322 724.238 115.844 722.252 116.546Z" fill="white"/>
<path d="M716.705 138.987C720.888 138.987 724.279 135.6 724.279 131.423C724.279 127.246 720.888 123.859 716.705 123.859C712.523 123.859 709.132 127.246 709.132 131.423C709.132 135.6 712.523 138.987 716.705 138.987Z" fill="#2478A0"/>
<path d="M724.86 119.439L723.657 117.456L721.905 117.208C722.279 110.68 720.582 108.735 720.582 108.735L720.188 108.697L718.472 108.531L715.243 105.183V104.233C719.78 104.772 722.287 106.924 723.642 109.446C726.036 113.872 724.86 119.439 724.86 119.439Z" fill="#2478A0"/>
<path opacity="0.1" d="M720.203 107.496V108.697L718.486 108.531L715.257 105.183C715.257 105.183 720.253 106.3 720.203 107.496Z" fill="black" stroke="#02385F" stroke-miterlimit="10"/>
<path opacity="0.1" d="M724.86 119.439L723.657 117.456V109.458C726.036 113.872 724.86 119.439 724.86 119.439Z" fill="black" stroke="#02385F" stroke-miterlimit="10"/>
<path d="M702.711 134.532C704.726 133.37 704.639 129.453 702.517 125.782C700.395 122.111 697.041 120.078 695.026 121.24C693.011 122.401 693.098 126.319 695.22 129.99C697.342 133.66 700.696 135.694 702.711 134.532Z" fill="white"/>
<path d="M700.005 127.244C702.128 130.916 704.732 133.368 702.718 134.534C700.703 135.7 694.835 135.117 692.712 131.443C690.59 127.769 692.517 122.696 694.531 121.529C696.546 120.363 697.88 123.565 700.005 127.244Z" fill="#2478A0"/>
<path opacity="0.1" d="M718.904 100.798C718.904 112.528 710.866 123.833 699.121 123.833C693.48 123.833 688.07 121.595 684.081 117.611C680.092 113.628 677.851 108.225 677.851 102.591C677.851 96.9575 680.092 91.5545 684.081 87.5709C688.07 83.5873 693.48 81.3493 699.121 81.3493C710.866 81.361 718.904 89.0646 718.904 100.798Z" fill="black"/>
<path d="M699.121 123.261C710.867 123.261 720.39 113.751 720.39 102.02C720.39 90.2881 710.867 80.7778 699.121 80.7778C687.374 80.7778 677.851 90.2881 677.851 102.02C677.851 113.751 687.374 123.261 699.121 123.261Z" fill="#FFB9B9"/>
<path d="M697.252 92.6073C699.783 93.5375 701.281 96.1501 703.553 97.6051C706.764 99.6462 710.945 99.1184 714.612 98.1095C716.656 97.5526 718.793 96.8732 720.804 97.4914C721.1 97.6222 721.427 97.6686 721.747 97.6255C722.185 97.5001 722.401 97.0161 722.544 96.5845C725.032 89.1783 723.914 80.7895 720.159 73.9373C719.19 72.1703 718.028 70.4616 716.428 69.234C715.167 68.2689 713.683 67.6362 712.189 67.0967C709.457 66.1169 706.631 65.4202 703.757 65.0178C703.249 64.9256 702.731 64.9089 702.218 64.9682C701.515 65.0819 700.884 65.461 700.256 65.7992C697.568 67.2385 694.587 68.0472 691.538 68.1639C687.451 68.3185 682.78 67.3562 679.629 69.9747C675.834 73.115 676.78 79.2412 674.319 83.5041C672.69 86.3237 669.548 88.3706 669.031 91.581C668.897 92.5622 668.959 93.5604 669.215 94.5172C670.418 99.4566 675.206 103.282 680.31 103.373C681.093 103.432 681.878 103.272 682.575 102.909C683.032 102.598 683.435 102.215 683.769 101.775C687.112 97.8208 690.937 90.2863 697.252 92.6073Z" fill="#444053"/>
<path opacity="0.1" d="M722.544 94.4356C722.401 94.8671 722.185 95.3511 721.747 95.4765C721.427 95.5196 721.1 95.4732 720.804 95.3424C718.793 94.7242 716.644 95.4036 714.615 95.9605C710.945 96.9694 706.755 97.5088 703.555 95.4561C701.281 93.9982 699.786 91.3739 697.252 90.4584C690.937 88.1257 687.112 95.6719 683.761 99.6257C683.427 100.066 683.023 100.449 682.567 100.76C681.87 101.123 681.085 101.283 680.301 101.224C675.215 101.133 670.424 97.3077 669.207 92.3682C669.139 92.0767 669.081 91.7851 669.037 91.4935C669.037 91.5197 669.037 91.5431 669.023 91.5693C668.888 92.5505 668.951 93.5487 669.207 94.5055C670.409 99.445 675.2 103.271 680.301 103.361C681.085 103.421 681.87 103.26 682.567 102.897C683.023 102.586 683.427 102.203 683.761 101.763C687.112 97.8092 690.937 90.2747 697.252 92.5957C699.786 93.5258 701.281 96.1384 703.555 97.5934C706.767 99.6345 710.945 99.1067 714.615 98.0978C716.659 97.5409 718.793 96.8615 720.804 97.4797C721.1 97.6105 721.427 97.657 721.747 97.6138C722.185 97.4884 722.401 97.0044 722.544 96.5729C723.548 93.5425 723.991 90.3551 723.852 87.1664C723.766 89.6394 723.326 92.0874 722.544 94.4356Z" fill="black"/>
</g>
<path d="M66.1719 107H70.6641V111.453H74.8047V107H79.2969V120.477H74.8047V115.984H70.7031V120.477H66.1719V107ZM85.2344 111.492H81.2695V107H93.7109V111.492H89.7266V120.477H85.2344V111.492ZM95.6836 107H100.391L103.281 111.746L106.172 107H110.879V120.477H106.387V113.797L103.242 118.641L100.098 113.797V120.477H95.6836V107ZM113.105 107H117.598V116.023H123.965V120.477H113.105" fill="white"/>
<path d="M66.0156 198.992L59.5703 126.648H130.43L123.984 198.953L94.9414 207" fill="#E44D26"/>
<path d="M95 200.848V132.586H123.965L118.438 194.305" fill="#F16529"/>
<path d="M72.7344 141.434H95V150.301H82.4609L83.2812 159.383H95V168.23H75.1562L72.7344 141.434ZM75.5469 172.684H84.4531L85.0781 179.773L95 182.43V191.687L76.7969 186.609" fill="#EBEBEB"/>
<path d="M117.188 141.434H94.9609V150.301H116.367L117.188 141.434ZM115.566 159.383H94.9609V168.25H105.898L104.863 179.773L94.9609 182.43V191.648L113.125 186.609" fill="white"/>
<g clip-path="url(#clip1)">
<path d="M238 127.456L231.623 199.037L202.957 207L174.37 199.048L168 127.456H238Z" fill="#264DE4"/>
<path d="M226.163 194.479L231.613 133.31H203V200.914L226.163 194.479Z" fill="#2965F1"/>
<path d="M182.604 159.862L183.389 168.643H203V159.862H182.604Z" fill="#EBEBEB"/>
<path d="M203 142.09H202.97H181.026L181.822 150.871H203V142.09Z" fill="#EBEBEB"/>
<path d="M203 191.802V182.666L202.962 182.677L193.202 180.036L192.578 173.033H187.836H183.781L185.009 186.82L202.96 191.813L203 191.802Z" fill="#EBEBEB"/>
<path d="M184.474 108H195.088V112.447H188.913V116.895H195.088V121.342H184.474V108Z" fill="white"/>
<path d="M197.211 108H207.824V111.867H201.649V112.641H207.824V121.535H197.211V117.475H203.386V116.701H197.211V108Z" fill="white"/>
<path d="M209.947 108H220.561V111.867H214.386V112.641H220.561V121.535H209.947V117.475H216.123V116.701H209.947V108Z" fill="white"/>
<path d="M213.761 168.643L212.743 180.03L202.97 182.674V191.809L220.935 186.82L221.067 185.336L223.126 162.22L223.34 159.862L224.922 142.09H202.97V150.871H215.318L214.521 159.862H202.97V168.643H213.761Z" fill="white"/>
</g>
<path opacity="0.85" d="M327.811 107.04C328.88 107.024 329.956 107.008 331.032 107C331.047 107.618 331.07 108.845 331.086 109.463C329.986 109.463 328.887 109.455 327.796 109.455C327.796 108.853 327.811 107.649 327.811 107.04V107.04Z" fill="#101010"/>
<path d="M262.603 107.546C264.565 107.562 266.534 107.57 268.511 107.578C268.343 111.221 269.03 115.007 268.038 118.555C266.755 121.106 263.565 120.607 261.267 120.654C261.176 119.846 261.084 119.038 261 118.231C262.321 118.12 263.755 118.389 264.969 117.684C265.755 115.158 265.404 112.457 265.206 109.859C264.534 109.875 263.198 109.891 262.527 109.899C262.549 109.313 262.58 108.133 262.603 107.546Z" fill="white"/>
<path d="M301.905 108.544C304.218 106.691 307.256 107.451 309.828 108.172C309.82 108.877 309.813 110.287 309.813 110.992C307.82 110.16 304.035 108.346 303.531 111.768C305.416 112.362 307.408 112.71 309.118 113.772C310.935 115.308 310.423 118.801 308.332 119.854C305.95 121.319 303.126 120.519 300.615 119.989C300.47 118.904 300.325 117.827 300.195 116.742C302.309 117.708 306.592 119.997 307.225 116.298C305.103 115.467 302.462 115.348 300.92 113.447C300.241 111.831 300.355 109.582 301.905 108.544V108.544Z" fill="white"/>
<path d="M344.107 107.998C345 107.998 345.901 107.998 346.809 107.998C346.832 108.893 346.863 109.788 346.901 110.683C347.588 110.691 348.97 110.707 349.664 110.714C349.679 111.261 349.702 112.346 349.718 112.885C349.015 112.877 347.611 112.861 346.909 112.845C346.947 114.659 346.496 116.639 347.374 118.31C348.031 118.381 349.344 118.516 350 118.587C349.931 121.921 346.268 120.409 344.329 119.886C344.153 117.85 344.069 115.815 344.069 113.772C343.573 113.051 343.077 112.322 342.588 111.602C342.962 111.245 343.71 110.532 344.084 110.176C344.092 109.629 344.1 108.536 344.107 107.998V107.998Z" fill="white"/>
<path d="M270.892 110.786C273.381 110.651 276.861 109.693 278.426 112.362C278.983 115.007 278.632 117.755 278.716 120.448C277.602 120.345 276.487 120.234 275.38 120.131C274.113 120.242 272.625 121.216 271.457 120.345C269.518 119.379 269.488 115.815 271.526 114.952C273.007 114.318 274.625 114.207 276.174 113.827C274.701 112.243 272.61 112.845 270.755 113.051C270.793 112.481 270.862 111.348 270.892 110.786V110.786ZM273.32 116.227C273.236 116.995 273.159 117.763 273.091 118.539C273.938 118.492 274.785 118.452 275.64 118.405C275.701 117.573 275.77 116.742 275.838 115.91C274.991 116.013 274.152 116.124 273.32 116.227Z" fill="white"/>
<path d="M279.853 110.509C280.586 110.659 282.059 110.96 282.792 111.111C283.563 112.948 284.09 114.88 284.838 116.734C285.464 114.754 286.044 112.75 286.608 110.746C287.341 110.73 288.814 110.707 289.547 110.691C288.509 114.088 287.349 117.447 286.051 120.757C285.044 120.622 284.051 120.401 283.09 120.108C281.701 117.035 280.785 113.756 279.853 110.509V110.509Z" fill="white"/>
<path d="M290.494 113.035C290.707 112.283 290.952 111.53 291.219 110.794C293.585 110.437 296.791 109.915 298.417 112.211C298.974 114.952 298.63 117.787 298.684 120.567C297.562 120.409 296.447 120.25 295.333 120.092C293.333 121.193 289.998 120.797 290.043 117.874C289.662 114.405 293.837 114.358 296.104 113.898C294.738 111.998 292.371 113.003 290.494 113.035ZM293.257 116.298C293.173 117.011 293.096 117.732 293.02 118.444C293.86 118.468 294.699 118.492 295.547 118.508C295.623 117.629 295.699 116.757 295.776 115.878C294.936 116.013 294.096 116.156 293.257 116.298V116.298Z" fill="white"/>
<path d="M310.912 115.625C310.675 111.316 315.957 109.059 319.117 111.356C319.194 111.966 319.339 113.193 319.407 113.803C317.957 113.328 316.469 112.251 314.911 112.98C313.263 114.611 313.606 118.753 316.4 118.508C317.171 118.254 318.705 117.747 319.476 117.494C319.339 118.175 319.071 119.537 318.942 120.211C315.637 121.826 310.652 119.918 310.912 115.625V115.625Z" fill="white"/>
<path d="M320.674 110.477C321.819 110.794 322.987 111.111 324.14 111.451C325.002 111.126 325.872 110.81 326.75 110.485C326.788 111.245 326.88 112.766 326.926 113.526C325.827 113.582 324.727 113.637 323.644 113.692C323.567 115.965 323.544 118.231 323.529 120.504C322.812 120.512 321.369 120.52 320.651 120.527C320.613 117.177 320.606 113.827 320.674 110.477V110.477Z" fill="white"/>
<path d="M333.085 110.691C335.192 111.182 337.314 111.031 339.413 110.596C342.703 111.301 342.779 116.14 341.527 118.674C340.489 120.86 337.948 120.654 335.986 120.543C336.001 121.7 336.016 122.848 336.032 124.004C335.299 123.996 333.818 123.981 333.078 123.965C333.078 119.545 333.07 115.118 333.085 110.691ZM336.062 113.019C336.032 114.865 336.016 116.718 336.032 118.563C336.978 118.294 338.2 118.484 338.917 117.637C339.451 116.132 339.032 114.508 338.925 112.956C337.971 112.972 337.016 112.995 336.062 113.019V113.019Z" fill="white"/>
<path d="M328.086 110.714C328.765 110.714 330.124 110.714 330.796 110.714C330.841 113.985 330.841 117.249 330.796 120.519C330.116 120.519 328.765 120.519 328.086 120.519C328.032 117.256 328.032 113.985 328.086 110.714Z" fill="white"/>
<path d="M271.449 126.879C279.06 126.547 286.685 126.974 294.302 126.84C302.706 126.562 311.103 126.792 319.514 126.824C326.185 126.84 332.856 126.792 339.528 126.848C337.429 150.869 335.314 174.891 333.368 198.928C324.43 201.565 315.484 204.163 306.546 206.784C305.401 207.276 304.225 206.816 303.126 206.507C294.631 203.973 286.135 201.462 277.625 199.023C275.411 174.993 273.327 150.94 271.449 126.879V126.879ZM305.63 133.144C305.317 144.992 305.584 156.841 305.492 168.689C305.576 179.524 305.34 190.366 305.615 201.201C313.125 199.363 320.537 197.106 327.948 194.881C329.811 174.312 331.628 153.744 333.185 133.152C324.002 133.057 314.812 133.168 305.63 133.144V133.144ZM296.073 179.413C291.662 178.161 287.303 176.72 282.83 175.73C282.7 178.486 282.746 181.242 283.052 183.983C289.601 185.638 296.012 187.816 302.569 189.44C302.615 173.75 302.546 158.053 302.599 142.363C300.462 142.307 298.325 142.276 296.188 142.228C295.944 154.615 296.173 167.018 296.073 179.413V179.413Z" fill="#D6BA32"/>
<path d="M305.63 133.144C314.812 133.168 324.002 133.057 333.185 133.152C331.628 153.744 329.811 174.312 327.948 194.881C320.537 197.106 313.125 199.363 305.614 201.201C305.34 190.366 305.576 179.524 305.492 168.689C305.584 156.841 305.317 144.992 305.63 133.144V133.144ZM308.202 142.355C308.233 152.556 308.24 162.765 308.202 172.966C312.69 172.214 317.163 171.35 321.636 170.503C321.567 172.879 321.476 175.255 321.377 177.631C317.018 178.835 312.667 180.078 308.286 181.195C308.217 183.935 308.21 186.676 308.233 189.424C313.751 188.141 319.186 186.525 324.666 185.092C325.353 184.759 326.674 184.798 326.613 183.682C327.277 176.348 327.689 168.982 328.33 161.632C323.788 162.02 319.293 162.812 314.751 163.137C314.713 158.971 314.705 154.805 314.766 150.639C319.545 150.639 324.315 150.639 329.093 150.647C329.399 147.867 329.666 145.08 329.872 142.292C322.651 142.323 315.423 142.22 308.202 142.355Z" fill="#FFDA3E"/>
<path d="M296.073 179.413C296.173 167.018 295.944 154.615 296.188 142.228C298.325 142.276 300.462 142.308 302.599 142.363C302.546 158.053 302.615 173.75 302.569 189.44C296.012 187.816 289.601 185.638 283.052 183.983C282.746 181.242 282.7 178.486 282.83 175.73C287.303 176.72 291.662 178.161 296.073 179.413V179.413Z" fill="#EBEBEB"/>
<defs>
<filter id="filter0_d" x="98.512" y="65.292" width="173.63" height="24.65" filterUnits="userSpaceOnUse" color-interpolation-filters="sRGB">
<feFlood flood-opacity="0" result="BackgroundImageFix"/>
<feColorMatrix in="SourceAlpha" type="matrix" values="0 0 0 0 0 0 0 0 0 0 0 0 0 0 0 0 0 0 127 0"/>
<feOffset dy="4"/>
<feGaussianBlur stdDeviation="2"/>
<feColorMatrix type="matrix" values="0 0 0 0 0 0 0 0 0 0 0 0 0 0 0 0 0 0 0.25 0"/>
<feBlend mode="normal" in2="BackgroundImageFix" result="effect1_dropShadow"/>
<feBlend mode="normal" in="SourceGraphic" in2="effect1_dropShadow" result="shape"/>
</filter>
<clipPath id="clip0">
<rect width="334" height="180" fill="white" transform="translate(486 18)"/>
</clipPath>
<clipPath id="clip1">
<rect width="70" height="99" fill="white" transform="translate(168 108)"/>
</clipPath>
</defs>
</svg>
